<svg width="301" height="431" viewBox="0 0 301 431" fill="none" xmlns="http://www.w3.org/2000/svg">
    <path d="M11.4043 18.6895H5.89648L4.74414 22H2.17578L7.54688 7.78125H9.76367L15.1445 22H12.5664L11.4043 18.6895ZM6.58984 16.6973H10.7109L8.65039 10.7988L6.58984 16.6973ZM17.5656 22V7.78125H21.7648C23.0214 7.78125 24.1346 8.0612 25.1047 8.62109C26.0813 9.18099 26.8365 9.97526 27.3703 11.0039C27.9042 12.0326 28.1711 13.2109 28.1711 14.5391V15.252C28.1711 16.5996 27.9009 17.7845 27.3605 18.8066C26.8267 19.8288 26.0617 20.6165 25.0656 21.1699C24.076 21.7233 22.94 22 21.6574 22H17.5656ZM20.0363 9.77344V20.0273H21.6477C22.9432 20.0273 23.9361 19.6237 24.6262 18.8164C25.3228 18.0026 25.6776 16.8372 25.6906 15.3203V14.5293C25.6906 12.9863 25.3553 11.8079 24.6848 10.9941C24.0142 10.1803 23.0409 9.77344 21.7648 9.77344H20.0363ZM31.432 22V7.78125H35.6313C36.8878 7.78125 38.001 8.0612 38.9711 8.62109C39.9477 9.18099 40.7029 9.97526 41.2367 11.0039C41.7706 12.0326 42.0375 13.2109 42.0375 14.5391V15.252C42.0375 16.5996 41.7673 17.7845 41.227 18.8066C40.6931 19.8288 39.9281 20.6165 38.932 21.1699C37.9424 21.7233 36.8064 22 35.5238 22H31.432ZM33.9027 9.77344V20.0273H35.5141C36.8096 20.0273 37.8025 19.6237 38.4926 18.8164C39.1892 18.0026 39.544 16.8372 39.557 15.3203V14.5293C39.557 12.9863 39.2217 11.8079 38.5512 10.9941C37.8806 10.1803 36.9073 9.77344 35.6313 9.77344H33.9027ZM50.523 16.5215H47.7691V22H45.2984V7.78125H50.2984C51.9391 7.78125 53.2053 8.14909 54.0973 8.88477C54.9892 9.62044 55.4352 10.6849 55.4352 12.0781C55.4352 13.0286 55.204 13.8262 54.7418 14.4707C54.2861 15.1087 53.648 15.6003 52.8277 15.9453L56.0211 21.873V22H53.3746L50.523 16.5215ZM47.7691 14.5391H50.3082C51.1415 14.5391 51.7926 14.3307 52.2613 13.9141C52.7301 13.4909 52.9645 12.9147 52.9645 12.1855C52.9645 11.4238 52.7464 10.8346 52.3102 10.418C51.8805 10.0013 51.2359 9.78646 50.3766 9.77344H47.7691V14.5391ZM66.8895 15.6523H61.0496V20.0273H67.8758V22H58.5789V7.78125H67.8074V9.77344H61.0496V13.6992H66.8895V15.6523ZM78.1191 18.3379C78.1191 17.7129 77.8978 17.2311 77.4551 16.8926C77.0189 16.554 76.2279 16.2122 75.082 15.8672C73.9362 15.5221 73.0247 15.138 72.3477 14.7148C71.0521 13.901 70.4043 12.8398 70.4043 11.5312C70.4043 10.3854 70.8698 9.44141 71.8008 8.69922C72.7383 7.95703 73.9525 7.58594 75.4434 7.58594C76.4329 7.58594 77.3151 7.76823 78.0898 8.13281C78.8646 8.4974 79.4733 9.01823 79.916 9.69531C80.3587 10.3659 80.5801 11.1113 80.5801 11.9316H78.1191C78.1191 11.1895 77.8848 10.61 77.416 10.1934C76.9538 9.77018 76.2897 9.55859 75.4238 9.55859C74.6165 9.55859 73.9883 9.73112 73.5391 10.0762C73.0964 10.4212 72.875 10.903 72.875 11.5215C72.875 12.0423 73.1159 12.4785 73.5977 12.8301C74.0794 13.1751 74.8737 13.5137 75.9805 13.8457C77.0872 14.1712 77.9759 14.5456 78.6465 14.9688C79.3171 15.3854 79.8086 15.8672 80.1211 16.4141C80.4336 16.9544 80.5898 17.5892 80.5898 18.3184C80.5898 19.5033 80.1341 20.4473 79.2227 21.1504C78.3177 21.847 77.0872 22.1953 75.5312 22.1953C74.5026 22.1953 73.5553 22.0065 72.6895 21.6289C71.8301 21.2448 71.1595 20.7174 70.6777 20.0469C70.2025 19.3763 69.9648 18.5951 69.9648 17.7031H72.4355C72.4355 18.5104 72.7025 19.1354 73.2363 19.5781C73.7702 20.0208 74.5352 20.2422 75.5312 20.2422C76.3906 20.2422 77.0352 20.0697 77.4648 19.7246C77.901 19.373 78.1191 18.9108 78.1191 18.3379ZM90.9895 18.3379C90.9895 17.7129 90.7681 17.2311 90.3254 16.8926C89.8892 16.554 89.0982 16.2122 87.9523 15.8672C86.8065 15.5221 85.8951 15.138 85.218 14.7148C83.9224 13.901 83.2746 12.8398 83.2746 11.5312C83.2746 10.3854 83.7401 9.44141 84.6711 8.69922C85.6086 7.95703 86.8228 7.58594 88.3137 7.58594C89.3033 7.58594 90.1854 7.76823 90.9602 8.13281C91.7349 8.4974 92.3436 9.01823 92.7863 9.69531C93.229 10.3659 93.4504 11.1113 93.4504 11.9316H90.9895C90.9895 11.1895 90.7551 10.61 90.2863 10.1934C89.8241 9.77018 89.16 9.55859 88.2941 9.55859C87.4869 9.55859 86.8586 9.73112 86.4094 10.0762C85.9667 10.4212 85.7453 10.903 85.7453 11.5215C85.7453 12.0423 85.9862 12.4785 86.468 12.8301C86.9497 13.1751 87.744 13.5137 88.8508 13.8457C89.9576 14.1712 90.8462 14.5456 91.5168 14.9688C92.1874 15.3854 92.6789 15.8672 92.9914 16.4141C93.3039 16.9544 93.4602 17.5892 93.4602 18.3184C93.4602 19.5033 93.0044 20.4473 92.093 21.1504C91.188 21.847 89.9576 22.1953 88.4016 22.1953C87.3729 22.1953 86.4257 22.0065 85.5598 21.6289C84.7004 21.2448 84.0298 20.7174 83.548 20.0469C83.0728 19.3763 82.8352 18.5951 82.8352 17.7031H85.3059C85.3059 18.5104 85.5728 19.1354 86.1066 19.5781C86.6405 20.0208 87.4055 20.2422 88.4016 20.2422C89.2609 20.2422 89.9055 20.0697 90.3352 19.7246C90.7714 19.373 90.9895 18.9108 90.9895 18.3379Z" fill="#1F3F68"/>
    <path opacity="0.6" d="M4.60938 72H3.64844V60.625H4.60938V72ZM7.74937 67.6953C7.74937 66.3828 8.04104 65.3385 8.62437 64.5625C9.21292 63.7812 10.0098 63.3906 11.015 63.3906C12.1556 63.3906 13.0254 63.8411 13.6244 64.7422V60H14.5541V72H13.6791L13.64 70.875C13.041 71.7292 12.1608 72.1562 10.9994 72.1562C10.0254 72.1562 9.23896 71.7656 8.64 70.9844C8.04625 70.1979 7.74937 69.138 7.74937 67.8047V67.6953ZM8.69469 67.8594C8.69469 68.9375 8.91083 69.7891 9.34312 70.4141C9.77542 71.0339 10.3848 71.3438 11.1712 71.3438C12.3223 71.3438 13.14 70.8359 13.6244 69.8203V65.8516C13.14 64.7526 12.3275 64.2031 11.1869 64.2031C10.4004 64.2031 9.78844 64.513 9.35094 65.1328C8.91344 65.7474 8.69469 66.6562 8.69469 67.8594ZM25.3106 71.3672C25.9617 71.3672 26.5059 71.1849 26.9434 70.8203C27.3861 70.4505 27.6257 69.974 27.6622 69.3906H28.5606C28.5346 69.9062 28.3731 70.3776 28.0763 70.8047C27.7794 71.2266 27.3835 71.5573 26.8888 71.7969C26.3992 72.0365 25.8731 72.1562 25.3106 72.1562C24.2013 72.1562 23.321 71.7708 22.67 71C22.0242 70.2292 21.7013 69.1927 21.7013 67.8906V67.6094C21.7013 66.776 21.8471 66.0391 22.1388 65.3984C22.4304 64.7578 22.8471 64.263 23.3888 63.9141C23.9356 63.5651 24.5736 63.3906 25.3028 63.3906C26.2299 63.3906 26.9929 63.6667 27.5919 64.2188C28.196 64.7708 28.519 65.4974 28.5606 66.3984H27.6622C27.6205 65.737 27.3809 65.2031 26.9434 64.7969C26.5111 64.3906 25.9643 64.1875 25.3028 64.1875C24.4591 64.1875 23.8028 64.4922 23.3341 65.1016C22.8705 65.7109 22.6388 66.5651 22.6388 67.6641V67.9375C22.6388 69.0156 22.8705 69.8568 23.3341 70.4609C23.8028 71.0651 24.4617 71.3672 25.3106 71.3672ZM30.56 67.6484C30.56 66.8359 30.7162 66.1042 31.0287 65.4531C31.3465 64.8021 31.7918 64.2969 32.3647 63.9375C32.9428 63.5729 33.5965 63.3906 34.3256 63.3906C35.4506 63.3906 36.3621 63.7865 37.06 64.5781C37.7579 65.3646 38.1069 66.4089 38.1069 67.7109V67.9062C38.1069 68.724 37.948 69.4609 37.6303 70.1172C37.3178 70.7682 36.8751 71.2708 36.3022 71.625C35.7293 71.9792 35.0756 72.1562 34.3412 72.1562C33.2215 72.1562 32.31 71.763 31.6069 70.9766C30.909 70.1849 30.56 69.138 30.56 67.8359V67.6484ZM31.4975 67.9062C31.4975 68.9167 31.7579 69.7474 32.2787 70.3984C32.8048 71.0443 33.4923 71.3672 34.3412 71.3672C35.185 71.3672 35.8673 71.0443 36.3881 70.3984C36.9142 69.7474 37.1772 68.8906 37.1772 67.8281V67.6484C37.1772 67.0026 37.0574 66.4115 36.8178 65.875C36.5782 65.3385 36.2423 64.9245 35.81 64.6328C35.3777 64.3359 34.8829 64.1875 34.3256 64.1875C33.4923 64.1875 32.8126 64.5156 32.2866 65.1719C31.7605 65.8229 31.4975 66.6771 31.4975 67.7344V67.9062ZM41.575 63.5469L41.6063 64.9922C41.924 64.4714 42.3198 64.0755 42.7938 63.8047C43.2677 63.5286 43.7911 63.3906 44.3641 63.3906C45.2703 63.3906 45.9448 63.6458 46.3875 64.1562C46.8302 64.6667 47.0542 65.4323 47.0594 66.4531V72H46.1297V66.4453C46.1245 65.6901 45.963 65.1276 45.6453 64.7578C45.3328 64.388 44.8302 64.2031 44.1375 64.2031C43.5594 64.2031 43.0464 64.3854 42.5984 64.75C42.1557 65.1094 41.8276 65.5964 41.6141 66.2109V72H40.6844V63.5469H41.575ZM52.7541 70.7109L55.3244 63.5469H56.2853L53.1291 72H52.3713L49.1994 63.5469H50.1603L52.7541 70.7109ZM63.6753 72C63.5816 71.7344 63.5217 71.3411 63.4956 70.8203C63.1675 71.2474 62.7482 71.5781 62.2378 71.8125C61.7326 72.0417 61.1961 72.1562 60.6284 72.1562C59.8159 72.1562 59.1571 71.9297 58.6519 71.4766C58.1519 71.0234 57.9019 70.4505 57.9019 69.7578C57.9019 68.9349 58.243 68.2839 58.9253 67.8047C59.6128 67.3255 60.5685 67.0859 61.7925 67.0859H63.4878V66.125C63.4878 65.5208 63.3003 65.0469 62.9253 64.7031C62.5555 64.3542 62.0139 64.1797 61.3003 64.1797C60.6493 64.1797 60.1102 64.3464 59.6831 64.6797C59.256 65.013 59.0425 65.4141 59.0425 65.8828L58.105 65.875C58.105 65.2031 58.4175 64.6224 59.0425 64.1328C59.6675 63.638 60.4357 63.3906 61.3472 63.3906C62.2899 63.3906 63.0321 63.6276 63.5737 64.1016C64.1206 64.5703 64.4019 65.2266 64.4175 66.0703V70.0703C64.4175 70.888 64.5034 71.5 64.6753 71.9062V72H63.6753ZM60.7378 71.3281C61.3628 71.3281 61.9201 71.1771 62.4097 70.875C62.9045 70.5729 63.2639 70.1693 63.4878 69.6641V67.8047H61.8159C60.8836 67.8151 60.1545 67.987 59.6284 68.3203C59.1024 68.6484 58.8394 69.1016 58.8394 69.6797C58.8394 70.1536 59.0139 70.5469 59.3628 70.8594C59.717 71.1719 60.1753 71.3281 60.7378 71.3281ZM68.6044 72H67.6669V60H68.6044V72ZM72.8381 72H71.9006V60H72.8381V72ZM77.0719 72H76.1344V63.5469H77.0719V72ZM75.9703 61.1016C75.9703 60.9245 76.0276 60.776 76.1422 60.6562C76.2568 60.5312 76.413 60.4688 76.6109 60.4688C76.8089 60.4688 76.9651 60.5312 77.0797 60.6562C77.1995 60.776 77.2594 60.9245 77.2594 61.1016C77.2594 61.2786 77.1995 61.4271 77.0797 61.5469C76.9651 61.6667 76.8089 61.7266 76.6109 61.7266C76.413 61.7266 76.2568 61.6667 76.1422 61.5469C76.0276 61.4271 75.9703 61.2786 75.9703 61.1016ZM85.3213 69.8516C85.3213 69.388 85.1338 69.0156 84.7588 68.7344C84.389 68.4531 83.8291 68.2344 83.0791 68.0781C82.3291 67.9167 81.7457 67.7344 81.3291 67.5312C80.9176 67.3229 80.6103 67.0703 80.4072 66.7734C80.2093 66.4766 80.1103 66.1172 80.1103 65.6953C80.1103 65.0286 80.389 64.4792 80.9463 64.0469C81.5035 63.6094 82.2171 63.3906 83.0869 63.3906C84.0296 63.3906 84.7848 63.625 85.3525 64.0938C85.9254 64.5573 86.2119 65.1641 86.2119 65.9141H85.2744C85.2744 65.4193 85.066 65.0078 84.6494 64.6797C84.2379 64.3516 83.7171 64.1875 83.0869 64.1875C82.4723 64.1875 81.9775 64.3255 81.6025 64.6016C81.2327 64.8724 81.0478 65.2266 81.0478 65.6641C81.0478 66.0859 81.2015 66.4141 81.5088 66.6484C81.8213 66.8776 82.3864 67.0885 83.2041 67.2812C84.027 67.474 84.6416 67.6797 85.0478 67.8984C85.4593 68.1172 85.764 68.3802 85.9619 68.6875C86.1598 68.9948 86.2588 69.3672 86.2588 69.8047C86.2588 70.5182 85.9697 71.0885 85.3916 71.5156C84.8186 71.9427 84.0686 72.1562 83.1416 72.1562C82.1572 72.1562 81.3577 71.9193 80.7431 71.4453C80.1338 70.9661 79.8291 70.362 79.8291 69.6328H80.7666C80.803 70.1797 81.0322 70.6068 81.4541 70.9141C81.8811 71.2161 82.4436 71.3672 83.1416 71.3672C83.7926 71.3672 84.3186 71.224 84.7197 70.9375C85.1207 70.651 85.3213 70.2891 85.3213 69.8516ZM100.336 67.8594C100.336 69.1771 100.044 70.224 99.4606 71C98.8773 71.7708 98.096 72.1562 97.1169 72.1562C95.9606 72.1562 95.0752 71.75 94.4606 70.9375V75.25H93.5309V63.5469H94.3981L94.445 64.7422C95.0544 63.8411 95.9372 63.3906 97.0934 63.3906C98.1039 63.3906 98.8955 63.7734 99.4684 64.5391C100.047 65.3047 100.336 66.3672 100.336 67.7266V67.8594ZM99.3981 67.6953C99.3981 66.6172 99.1768 65.7656 98.7341 65.1406C98.2914 64.5156 97.6742 64.2031 96.8825 64.2031C96.3096 64.2031 95.8174 64.3411 95.4059 64.6172C94.9945 64.8932 94.6794 65.2943 94.4606 65.8203V69.875C94.6846 70.3594 95.0049 70.7292 95.4216 70.9844C95.8382 71.2396 96.3304 71.3672 96.8981 71.3672C97.6846 71.3672 98.2966 71.0547 98.7341 70.4297C99.1768 69.7995 99.3981 68.888 99.3981 67.6953ZM104.101 72H103.163V60H104.101V72ZM112.623 72C112.53 71.7344 112.47 71.3411 112.444 70.8203C112.116 71.2474 111.696 71.5781 111.186 71.8125C110.681 72.0417 110.144 72.1562 109.577 72.1562C108.764 72.1562 108.105 71.9297 107.6 71.4766C107.1 71.0234 106.85 70.4505 106.85 69.7578C106.85 68.9349 107.191 68.2839 107.873 67.8047C108.561 67.3255 109.517 67.0859 110.741 67.0859H112.436V66.125C112.436 65.5208 112.248 65.0469 111.873 64.7031C111.504 64.3542 110.962 64.1797 110.248 64.1797C109.597 64.1797 109.058 64.3464 108.631 64.6797C108.204 65.013 107.991 65.4141 107.991 65.8828L107.053 65.875C107.053 65.2031 107.366 64.6224 107.991 64.1328C108.616 63.638 109.384 63.3906 110.295 63.3906C111.238 63.3906 111.98 63.6276 112.522 64.1016C113.069 64.5703 113.35 65.2266 113.366 66.0703V70.0703C113.366 70.888 113.452 71.5 113.623 71.9062V72H112.623ZM109.686 71.3281C110.311 71.3281 110.868 71.1771 111.358 70.875C111.853 70.5729 112.212 70.1693 112.436 69.6641V67.8047H110.764C109.832 67.8151 109.103 67.987 108.577 68.3203C108.051 68.6484 107.787 69.1016 107.787 69.6797C107.787 70.1536 107.962 70.5469 108.311 70.8594C108.665 71.1719 109.123 71.3281 109.686 71.3281ZM119.631 71.3672C120.282 71.3672 120.826 71.1849 121.263 70.8203C121.706 70.4505 121.946 69.974 121.982 69.3906H122.881C122.855 69.9062 122.693 70.3776 122.396 70.8047C122.099 71.2266 121.704 71.5573 121.209 71.7969C120.719 72.0365 120.193 72.1562 119.631 72.1562C118.521 72.1562 117.641 71.7708 116.99 71C116.344 70.2292 116.021 69.1927 116.021 67.8906V67.6094C116.021 66.776 116.167 66.0391 116.459 65.3984C116.75 64.7578 117.167 64.263 117.709 63.9141C118.256 63.5651 118.894 63.3906 119.623 63.3906C120.55 63.3906 121.313 63.6667 121.912 64.2188C122.516 64.7708 122.839 65.4974 122.881 66.3984H121.982C121.941 65.737 121.701 65.2031 121.263 64.7969C120.831 64.3906 120.284 64.1875 119.623 64.1875C118.779 64.1875 118.123 64.4922 117.654 65.1016C117.191 65.7109 116.959 66.5651 116.959 67.6641V67.9375C116.959 69.0156 117.191 69.8568 117.654 70.4609C118.123 71.0651 118.782 71.3672 119.631 71.3672ZM128.669 72.1562C127.95 72.1562 127.299 71.9792 126.716 71.625C126.138 71.2708 125.687 70.7786 125.364 70.1484C125.041 69.513 124.88 68.8021 124.88 68.0156V67.6797C124.88 66.8672 125.036 66.1354 125.349 65.4844C125.666 64.8333 126.107 64.3229 126.669 63.9531C127.232 63.5781 127.841 63.3906 128.497 63.3906C129.523 63.3906 130.336 63.7422 130.935 64.4453C131.539 65.1432 131.841 66.099 131.841 67.3125V67.8359H125.81V68.0156C125.81 68.974 126.083 69.7734 126.63 70.4141C127.182 71.0495 127.875 71.3672 128.708 71.3672C129.208 71.3672 129.648 71.276 130.028 71.0938C130.414 70.9115 130.763 70.6198 131.075 70.2188L131.661 70.6641C130.974 71.6589 129.976 72.1562 128.669 72.1562ZM128.497 64.1875C127.794 64.1875 127.2 64.4453 126.716 64.9609C126.237 65.4766 125.945 66.1693 125.841 67.0391H130.911V66.9375C130.885 66.125 130.653 65.4635 130.216 64.9531C129.778 64.4427 129.206 64.1875 128.497 64.1875ZM138.208 64.3438C138.01 64.3073 137.799 64.2891 137.575 64.2891C136.991 64.2891 136.497 64.4531 136.09 64.7812C135.689 65.1042 135.403 65.5755 135.231 66.1953V72H134.301V63.5469H135.215L135.231 64.8906C135.726 63.8906 136.52 63.3906 137.614 63.3906C137.874 63.3906 138.08 63.4245 138.231 63.4922L138.208 64.3438ZM145.355 72C145.262 71.7344 145.202 71.3411 145.176 70.8203C144.848 71.2474 144.428 71.5781 143.918 71.8125C143.413 72.0417 142.876 72.1562 142.308 72.1562C141.496 72.1562 140.837 71.9297 140.332 71.4766C139.832 71.0234 139.582 70.4505 139.582 69.7578C139.582 68.9349 139.923 68.2839 140.605 67.8047C141.293 67.3255 142.249 67.0859 143.473 67.0859H145.168V66.125C145.168 65.5208 144.98 65.0469 144.605 64.7031C144.236 64.3542 143.694 64.1797 142.98 64.1797C142.329 64.1797 141.79 64.3464 141.363 64.6797C140.936 65.013 140.723 65.4141 140.723 65.8828L139.785 65.875C139.785 65.2031 140.098 64.6224 140.723 64.1328C141.348 63.638 142.116 63.3906 143.027 63.3906C143.97 63.3906 144.712 63.6276 145.254 64.1016C145.801 64.5703 146.082 65.2266 146.098 66.0703V70.0703C146.098 70.888 146.183 71.5 146.355 71.9062V72H145.355ZM142.418 71.3281C143.043 71.3281 143.6 71.1771 144.09 70.875C144.584 70.5729 144.944 70.1693 145.168 69.6641V67.8047H143.496C142.564 67.8151 141.834 67.987 141.308 68.3203C140.782 68.6484 140.519 69.1016 140.519 69.6797C140.519 70.1536 140.694 70.5469 141.043 70.8594C141.397 71.1719 141.855 71.3281 142.418 71.3281ZM150.691 61.3828V63.5469H152.441V64.3125H150.691V69.9453C150.691 70.4141 150.774 70.763 150.941 70.9922C151.113 71.2214 151.396 71.3359 151.792 71.3359C151.948 71.3359 152.201 71.3099 152.55 71.2578L152.589 72.0234C152.344 72.112 152.011 72.1562 151.589 72.1562C150.948 72.1562 150.482 71.9714 150.191 71.6016C149.899 71.2266 149.753 70.6771 149.753 69.9531V64.3125H148.198V63.5469H149.753V61.3828H150.691ZM164.611 69.8516C164.611 69.388 164.424 69.0156 164.049 68.7344C163.679 68.4531 163.119 68.2344 162.369 68.0781C161.619 67.9167 161.036 67.7344 160.619 67.5312C160.208 67.3229 159.9 67.0703 159.697 66.7734C159.499 66.4766 159.4 66.1172 159.4 65.6953C159.4 65.0286 159.679 64.4792 160.236 64.0469C160.794 63.6094 161.507 63.3906 162.377 63.3906C163.32 63.3906 164.075 63.625 164.643 64.0938C165.215 64.5573 165.502 65.1641 165.502 65.9141H164.564C164.564 65.4193 164.356 65.0078 163.939 64.6797C163.528 64.3516 163.007 64.1875 162.377 64.1875C161.762 64.1875 161.268 64.3255 160.893 64.6016C160.523 64.8724 160.338 65.2266 160.338 65.6641C160.338 66.0859 160.491 66.4141 160.799 66.6484C161.111 66.8776 161.676 67.0885 162.494 67.2812C163.317 67.474 163.932 67.6797 164.338 67.8984C164.749 68.1172 165.054 68.3802 165.252 68.6875C165.45 68.9948 165.549 69.3672 165.549 69.8047C165.549 70.5182 165.26 71.0885 164.682 71.5156C164.109 71.9427 163.359 72.1562 162.432 72.1562C161.447 72.1562 160.648 71.9193 160.033 71.4453C159.424 70.9661 159.119 70.362 159.119 69.6328H160.057C160.093 70.1797 160.322 70.6068 160.744 70.9141C161.171 71.2161 161.734 71.3672 162.432 71.3672C163.083 71.3672 163.609 71.224 164.01 70.9375C164.411 70.651 164.611 70.2891 164.611 69.8516ZM169.345 72H168.408V63.5469H169.345V72ZM168.243 61.1016C168.243 60.9245 168.301 60.776 168.415 60.6562C168.53 60.5312 168.686 60.4688 168.884 60.4688C169.082 60.4688 169.238 60.5312 169.353 60.6562C169.473 60.776 169.533 60.9245 169.533 61.1016C169.533 61.2786 169.473 61.4271 169.353 61.5469C169.238 61.6667 169.082 61.7266 168.884 61.7266C168.686 61.7266 168.53 61.6667 168.415 61.5469C168.301 61.4271 168.243 61.2786 168.243 61.1016ZM173.985 61.3828V63.5469H175.735V64.3125H173.985V69.9453C173.985 70.4141 174.068 70.763 174.235 70.9922C174.407 71.2214 174.691 71.3359 175.087 71.3359C175.243 71.3359 175.495 71.3099 175.844 71.2578L175.883 72.0234C175.639 72.112 175.305 72.1562 174.883 72.1562C174.243 72.1562 173.777 71.9714 173.485 71.6016C173.193 71.2266 173.048 70.6771 173.048 69.9531V64.3125H171.493V63.5469H173.048V61.3828H173.985ZM187.906 69.8516C187.906 69.388 187.718 69.0156 187.343 68.7344C186.973 68.4531 186.413 68.2344 185.663 68.0781C184.913 67.9167 184.33 67.7344 183.913 67.5312C183.502 67.3229 183.195 67.0703 182.992 66.7734C182.794 66.4766 182.695 66.1172 182.695 65.6953C182.695 65.0286 182.973 64.4792 183.531 64.0469C184.088 63.6094 184.801 63.3906 185.671 63.3906C186.614 63.3906 187.369 63.625 187.937 64.0938C188.51 64.5573 188.796 65.1641 188.796 65.9141H187.859C187.859 65.4193 187.65 65.0078 187.234 64.6797C186.822 64.3516 186.301 64.1875 185.671 64.1875C185.057 64.1875 184.562 64.3255 184.187 64.6016C183.817 64.8724 183.632 65.2266 183.632 65.6641C183.632 66.0859 183.786 66.4141 184.093 66.6484C184.406 66.8776 184.971 67.0885 185.788 67.2812C186.611 67.474 187.226 67.6797 187.632 67.8984C188.044 68.1172 188.348 68.3802 188.546 68.6875C188.744 68.9948 188.843 69.3672 188.843 69.8047C188.843 70.5182 188.554 71.0885 187.976 71.5156C187.403 71.9427 186.653 72.1562 185.726 72.1562C184.742 72.1562 183.942 71.9193 183.327 71.4453C182.718 70.9661 182.413 70.362 182.413 69.6328H183.351C183.387 70.1797 183.617 70.6068 184.038 70.9141C184.466 71.2161 185.028 71.3672 185.726 71.3672C186.377 71.3672 186.903 71.224 187.304 70.9375C187.705 70.651 187.906 70.2891 187.906 69.8516ZM194.866 72.1562C194.147 72.1562 193.496 71.9792 192.913 71.625C192.335 71.2708 191.884 70.7786 191.561 70.1484C191.238 69.513 191.077 68.8021 191.077 68.0156V67.6797C191.077 66.8672 191.233 66.1354 191.546 65.4844C191.863 64.8333 192.303 64.3229 192.866 63.9531C193.428 63.5781 194.038 63.3906 194.694 63.3906C195.72 63.3906 196.533 63.7422 197.132 64.4453C197.736 65.1432 198.038 66.099 198.038 67.3125V67.8359H192.007V68.0156C192.007 68.974 192.28 69.7734 192.827 70.4141C193.379 71.0495 194.072 71.3672 194.905 71.3672C195.405 71.3672 195.845 71.276 196.225 71.0938C196.611 70.9115 196.96 70.6198 197.272 70.2188L197.858 70.6641C197.171 71.6589 196.173 72.1562 194.866 72.1562ZM194.694 64.1875C193.991 64.1875 193.397 64.4453 192.913 64.9609C192.434 65.4766 192.142 66.1693 192.038 67.0391H197.108V66.9375C197.082 66.125 196.85 65.4635 196.413 64.9531C195.975 64.4427 195.402 64.1875 194.694 64.1875ZM200.123 67.6953C200.123 66.3828 200.415 65.3385 200.998 64.5625C201.587 63.7812 202.384 63.3906 203.389 63.3906C204.529 63.3906 205.399 63.8411 205.998 64.7422V60H206.928V72H206.053L206.014 70.875C205.415 71.7292 204.535 72.1562 203.373 72.1562C202.399 72.1562 201.613 71.7656 201.014 70.9844C200.42 70.1979 200.123 69.138 200.123 67.8047V67.6953ZM201.068 67.8594C201.068 68.9375 201.285 69.7891 201.717 70.4141C202.149 71.0339 202.759 71.3438 203.545 71.3438C204.696 71.3438 205.514 70.8359 205.998 69.8203V65.8516C205.514 64.7526 204.701 64.2031 203.561 64.2031C202.774 64.2031 202.162 64.513 201.725 65.1328C201.287 65.7474 201.068 66.6562 201.068 67.8594ZM214.184 67.6953C214.184 66.3828 214.476 65.3385 215.059 64.5625C215.648 63.7812 216.445 63.3906 217.45 63.3906C218.591 63.3906 219.46 63.8411 220.059 64.7422V60H220.989V72H220.114L220.075 70.875C219.476 71.7292 218.596 72.1562 217.434 72.1562C216.46 72.1562 215.674 71.7656 215.075 70.9844C214.481 70.1979 214.184 69.138 214.184 67.8047V67.6953ZM215.13 67.8594C215.13 68.9375 215.346 69.7891 215.778 70.4141C216.21 71.0339 216.82 71.3438 217.606 71.3438C218.757 71.3438 219.575 70.8359 220.059 69.8203V65.8516C219.575 64.7526 218.762 64.2031 217.622 64.2031C216.835 64.2031 216.223 64.513 215.786 65.1328C215.348 65.7474 215.13 66.6562 215.13 67.8594ZM229.527 70.9297C228.965 71.7474 228.067 72.1562 226.832 72.1562C225.931 72.1562 225.246 71.8958 224.777 71.375C224.309 70.849 224.069 70.0729 224.059 69.0469V63.5469H224.988V68.9297C224.988 70.5391 225.639 71.3438 226.942 71.3438C228.296 71.3438 229.152 70.7839 229.512 69.6641V63.5469H230.449V72H229.543L229.527 70.9297ZM234.574 72H233.636V63.5469H234.574V72ZM233.472 61.1016C233.472 60.9245 233.529 60.776 233.644 60.6562C233.759 60.5312 233.915 60.4688 234.113 60.4688C234.311 60.4688 234.467 60.5312 234.582 60.6562C234.701 60.776 234.761 60.9245 234.761 61.1016C234.761 61.2786 234.701 61.4271 234.582 61.5469C234.467 61.6667 234.311 61.7266 234.113 61.7266C233.915 61.7266 233.759 61.6667 233.644 61.5469C233.529 61.4271 233.472 61.2786 233.472 61.1016ZM242.823 69.8516C242.823 69.388 242.636 69.0156 242.261 68.7344C241.891 68.4531 241.331 68.2344 240.581 68.0781C239.831 67.9167 239.248 67.7344 238.831 67.5312C238.419 67.3229 238.112 67.0703 237.909 66.7734C237.711 66.4766 237.612 66.1172 237.612 65.6953C237.612 65.0286 237.891 64.4792 238.448 64.0469C239.005 63.6094 239.719 63.3906 240.589 63.3906C241.531 63.3906 242.287 63.625 242.854 64.0938C243.427 64.5573 243.714 65.1641 243.714 65.9141H242.776C242.776 65.4193 242.568 65.0078 242.151 64.6797C241.74 64.3516 241.219 64.1875 240.589 64.1875C239.974 64.1875 239.479 64.3255 239.104 64.6016C238.735 64.8724 238.55 65.2266 238.55 65.6641C238.55 66.0859 238.703 66.4141 239.011 66.6484C239.323 66.8776 239.888 67.0885 240.706 67.2812C241.529 67.474 242.143 67.6797 242.55 67.8984C242.961 68.1172 243.266 68.3802 243.464 68.6875C243.662 68.9948 243.761 69.3672 243.761 69.8047C243.761 70.5182 243.472 71.0885 242.893 71.5156C242.321 71.9427 241.571 72.1562 240.643 72.1562C239.659 72.1562 238.86 71.9193 238.245 71.4453C237.636 70.9661 237.331 70.362 237.331 69.6328H238.268C238.305 70.1797 238.534 70.6068 238.956 70.9141C239.383 71.2161 239.946 71.3672 240.643 71.3672C241.294 71.3672 241.821 71.224 242.222 70.9375C242.623 70.651 242.823 70.2891 242.823 69.8516ZM252.087 72H251.15V63.5469H252.087V72ZM250.986 61.1016C250.986 60.9245 251.043 60.776 251.158 60.6562C251.272 60.5312 251.429 60.4688 251.627 60.4688C251.824 60.4688 251.981 60.5312 252.095 60.6562C252.215 60.776 252.275 60.9245 252.275 61.1016C252.275 61.2786 252.215 61.4271 252.095 61.5469C251.981 61.6667 251.824 61.7266 251.627 61.7266C251.429 61.7266 251.272 61.6667 251.158 61.5469C251.043 61.4271 250.986 61.2786 250.986 61.1016ZM254.899 67.6953C254.899 66.3828 255.191 65.3385 255.774 64.5625C256.363 63.7812 257.16 63.3906 258.165 63.3906C259.306 63.3906 260.175 63.8411 260.774 64.7422V60H261.704V72H260.829L260.79 70.875C260.191 71.7292 259.311 72.1562 258.149 72.1562C257.175 72.1562 256.389 71.7656 255.79 70.9844C255.196 70.1979 254.899 69.138 254.899 67.8047V67.6953ZM255.845 67.8594C255.845 68.9375 256.061 69.7891 256.493 70.4141C256.925 71.0339 257.535 71.3438 258.321 71.3438C259.472 71.3438 260.29 70.8359 260.774 69.8203V65.8516C260.29 64.7526 259.477 64.2031 258.337 64.2031C257.55 64.2031 256.938 64.513 256.501 65.1328C256.063 65.7474 255.845 66.6562 255.845 67.8594ZM8.55469 98C8.46094 97.7344 8.40104 97.3411 8.375 96.8203C8.04688 97.2474 7.6276 97.5781 7.11719 97.8125C6.61198 98.0417 6.07552 98.1562 5.50781 98.1562C4.69531 98.1562 4.03646 97.9297 3.53125 97.4766C3.03125 97.0234 2.78125 96.4505 2.78125 95.7578C2.78125 94.9349 3.1224 94.2839 3.80469 93.8047C4.49219 93.3255 5.44792 93.0859 6.67188 93.0859H8.36719V92.125C8.36719 91.5208 8.17969 91.0469 7.80469 90.7031C7.4349 90.3542 6.89323 90.1797 6.17969 90.1797C5.52865 90.1797 4.98958 90.3464 4.5625 90.6797C4.13542 91.013 3.92188 91.4141 3.92188 91.8828L2.98438 91.875C2.98438 91.2031 3.29688 90.6224 3.92188 90.1328C4.54688 89.638 5.3151 89.3906 6.22656 89.3906C7.16927 89.3906 7.91146 89.6276 8.45312 90.1016C9 90.5703 9.28125 91.2266 9.29688 92.0703V96.0703C9.29688 96.888 9.38281 97.5 9.55469 97.9062V98H8.55469ZM5.61719 97.3281C6.24219 97.3281 6.79948 97.1771 7.28906 96.875C7.78385 96.5729 8.14323 96.1693 8.36719 95.6641V93.8047H6.69531C5.76302 93.8151 5.03385 93.987 4.50781 94.3203C3.98177 94.6484 3.71875 95.1016 3.71875 95.6797C3.71875 96.1536 3.89323 96.5469 4.24219 96.8594C4.59635 97.1719 5.05469 97.3281 5.61719 97.3281ZM13.2884 89.5469L13.3197 90.9219C13.6322 90.4115 14.0228 90.0286 14.4916 89.7734C14.9603 89.5182 15.4811 89.3906 16.0541 89.3906C17.3874 89.3906 18.2338 89.9375 18.5931 91.0312C18.8952 90.5052 19.2989 90.1016 19.8041 89.8203C20.3093 89.5339 20.8666 89.3906 21.4759 89.3906C23.2884 89.3906 24.2129 90.3802 24.2494 92.3594V98H23.3119V92.4297C23.3067 91.6745 23.1426 91.1146 22.8197 90.75C22.502 90.3854 21.9811 90.2031 21.2572 90.2031C20.5853 90.2135 20.0176 90.4323 19.5541 90.8594C19.0905 91.2812 18.8327 91.7969 18.7806 92.4062V98H17.8431V92.3594C17.8379 91.6354 17.666 91.0964 17.3275 90.7422C16.9942 90.3828 16.4785 90.2031 15.7806 90.2031C15.1921 90.2031 14.6869 90.3724 14.265 90.7109C13.8431 91.0443 13.5306 91.5417 13.3275 92.2031V98H12.39V89.5469H13.2884ZM30.5378 98.1562C29.8191 98.1562 29.168 97.9792 28.5847 97.625C28.0066 97.2708 27.556 96.7786 27.2331 96.1484C26.9102 95.513 26.7488 94.8021 26.7488 94.0156V93.6797C26.7488 92.8672 26.905 92.1354 27.2175 91.4844C27.5352 90.8333 27.9753 90.3229 28.5378 89.9531C29.1003 89.5781 29.7097 89.3906 30.3659 89.3906C31.392 89.3906 32.2045 89.7422 32.8034 90.4453C33.4076 91.1432 33.7097 92.099 33.7097 93.3125V93.8359H27.6784V94.0156C27.6784 94.974 27.9519 95.7734 28.4988 96.4141C29.0508 97.0495 29.7435 97.3672 30.5769 97.3672C31.0769 97.3672 31.517 97.276 31.8972 97.0938C32.2826 96.9115 32.6316 96.6198 32.9441 96.2188L33.53 96.6641C32.8425 97.6589 31.8451 98.1562 30.5378 98.1562ZM30.3659 90.1875C29.6628 90.1875 29.0691 90.4453 28.5847 90.9609C28.1055 91.4766 27.8139 92.1693 27.7097 93.0391H32.78V92.9375C32.754 92.125 32.5222 91.4635 32.0847 90.9531C31.6472 90.4427 31.0743 90.1875 30.3659 90.1875ZM37.6231 87.3828V89.5469H39.3731V90.3125H37.6231V95.9453C37.6231 96.4141 37.7065 96.763 37.8731 96.9922C38.045 97.2214 38.3289 97.3359 38.7247 97.3359C38.8809 97.3359 39.1335 97.3099 39.4825 97.2578L39.5216 98.0234C39.2768 98.112 38.9434 98.1562 38.5216 98.1562C37.8809 98.1562 37.4148 97.9714 37.1231 97.6016C36.8315 97.2266 36.6856 96.6771 36.6856 95.9531V90.3125H35.1309V89.5469H36.6856V87.3828H37.6231ZM49.1141 96.7109L51.6844 89.5469H52.6453L49.4891 98H48.7313L45.5594 89.5469H46.5203L49.1141 96.7109ZM54.1838 93.6484C54.1838 92.8359 54.34 92.1042 54.6525 91.4531C54.9702 90.8021 55.4155 90.2969 55.9884 89.9375C56.5666 89.5729 57.2202 89.3906 57.9494 89.3906C59.0744 89.3906 59.9858 89.7865 60.6838 90.5781C61.3817 91.3646 61.7306 92.4089 61.7306 93.7109V93.9062C61.7306 94.724 61.5718 95.4609 61.2541 96.1172C60.9416 96.7682 60.4989 97.2708 59.9259 97.625C59.353 97.9792 58.6994 98.1562 57.965 98.1562C56.8452 98.1562 55.9338 97.763 55.2306 96.9766C54.5327 96.1849 54.1838 95.138 54.1838 93.8359V93.6484ZM55.1213 93.9062C55.1213 94.9167 55.3817 95.7474 55.9025 96.3984C56.4285 97.0443 57.116 97.3672 57.965 97.3672C58.8088 97.3672 59.491 97.0443 60.0119 96.3984C60.5379 95.7474 60.8009 94.8906 60.8009 93.8281V93.6484C60.8009 93.0026 60.6811 92.4115 60.4416 91.875C60.202 91.3385 59.866 90.9245 59.4338 90.6328C59.0015 90.3359 58.5067 90.1875 57.9494 90.1875C57.116 90.1875 56.4364 90.5156 55.9103 91.1719C55.3843 91.8229 55.1213 92.6771 55.1213 93.7344V93.9062ZM65.355 98H64.4175V86H65.355V98ZM73.9794 96.9297C73.4169 97.7474 72.5184 98.1562 71.2841 98.1562C70.383 98.1562 69.6981 97.8958 69.2294 97.375C68.7606 96.849 68.521 96.0729 68.5106 95.0469V89.5469H69.4403V94.9297C69.4403 96.5391 70.0914 97.3438 71.3934 97.3438C72.7476 97.3438 73.6044 96.7839 73.9638 95.6641V89.5469H74.9013V98H73.995L73.9794 96.9297ZM79.4319 87.3828V89.5469H81.1819V90.3125H79.4319V95.9453C79.4319 96.4141 79.5152 96.763 79.6819 96.9922C79.8538 97.2214 80.1376 97.3359 80.5334 97.3359C80.6897 97.3359 80.9423 97.3099 81.2913 97.2578L81.3303 98.0234C81.0855 98.112 80.7522 98.1562 80.3303 98.1562C79.6897 98.1562 79.2235 97.9714 78.9319 97.6016C78.6402 97.2266 78.4944 96.6771 78.4944 95.9531V90.3125H76.9397V89.5469H78.4944V87.3828H79.4319ZM90.5563 93.8594C90.5563 95.1771 90.2646 96.224 89.6813 97C89.0979 97.7708 88.3167 98.1562 87.3375 98.1562C86.1813 98.1562 85.2958 97.75 84.6813 96.9375V101.25H83.7516V89.5469H84.6188L84.6656 90.7422C85.275 89.8411 86.1578 89.3906 87.3141 89.3906C88.3245 89.3906 89.1161 89.7734 89.6891 90.5391C90.2672 91.3047 90.5563 92.3672 90.5563 93.7266V93.8594ZM89.6188 93.6953C89.6188 92.6172 89.3974 91.7656 88.9547 91.1406C88.512 90.5156 87.8948 90.2031 87.1031 90.2031C86.5302 90.2031 86.038 90.3411 85.6266 90.6172C85.2151 90.8932 84.9 91.2943 84.6813 91.8203V95.875C84.9052 96.3594 85.2255 96.7292 85.6422 96.9844C86.0589 97.2396 86.551 97.3672 87.1188 97.3672C87.9052 97.3672 88.5172 97.0547 88.9547 96.4297C89.3974 95.7995 89.6188 94.888 89.6188 93.6953ZM98.6103 98C98.5166 97.7344 98.4567 97.3411 98.4306 96.8203C98.1025 97.2474 97.6832 97.5781 97.1728 97.8125C96.6676 98.0417 96.1311 98.1562 95.5634 98.1562C94.7509 98.1562 94.0921 97.9297 93.5869 97.4766C93.0869 97.0234 92.8369 96.4505 92.8369 95.7578C92.8369 94.9349 93.178 94.2839 93.8603 93.8047C94.5478 93.3255 95.5035 93.0859 96.7275 93.0859H98.4228V92.125C98.4228 91.5208 98.2353 91.0469 97.8603 90.7031C97.4905 90.3542 96.9489 90.1797 96.2353 90.1797C95.5843 90.1797 95.0452 90.3464 94.6181 90.6797C94.191 91.013 93.9775 91.4141 93.9775 91.8828L93.04 91.875C93.04 91.2031 93.3525 90.6224 93.9775 90.1328C94.6025 89.638 95.3707 89.3906 96.2822 89.3906C97.2249 89.3906 97.9671 89.6276 98.5088 90.1016C99.0556 90.5703 99.3369 91.2266 99.3525 92.0703V96.0703C99.3525 96.888 99.4384 97.5 99.6103 97.9062V98H98.6103ZM95.6728 97.3281C96.2978 97.3281 96.8551 97.1771 97.3447 96.875C97.8395 96.5729 98.1989 96.1693 98.4228 95.6641V93.8047H96.7509C95.8186 93.8151 95.0895 93.987 94.5634 94.3203C94.0374 94.6484 93.7744 95.1016 93.7744 95.6797C93.7744 96.1536 93.9489 96.5469 94.2978 96.8594C94.652 97.1719 95.1103 97.3281 95.6728 97.3281ZM103.946 87.3828V89.5469H105.696V90.3125H103.946V95.9453C103.946 96.4141 104.029 96.763 104.196 96.9922C104.368 97.2214 104.651 97.3359 105.047 97.3359C105.203 97.3359 105.456 97.3099 105.805 97.2578L105.844 98.0234C105.599 98.112 105.266 98.1562 104.844 98.1562C104.203 98.1562 103.737 97.9714 103.446 97.6016C103.154 97.2266 103.008 96.6771 103.008 95.9531V90.3125H101.453V89.5469H103.008V87.3828H103.946ZM112.429 93.6953C112.429 92.3724 112.72 91.3255 113.304 90.5547C113.892 89.7786 114.694 89.3906 115.71 89.3906C116.851 89.3906 117.718 89.8255 118.312 90.6953L118.358 89.5469H119.233V101.25H118.296V96.9531C117.681 97.7552 116.814 98.1562 115.694 98.1562C114.705 98.1562 113.913 97.7656 113.319 96.9844C112.726 96.2031 112.429 95.1484 112.429 93.8203V93.6953ZM113.374 93.8594C113.374 94.9531 113.593 95.8125 114.03 96.4375C114.473 97.0573 115.085 97.3672 115.866 97.3672C116.986 97.3672 117.796 96.8802 118.296 95.9062V91.7656C118.062 91.2604 117.736 90.8724 117.319 90.6016C116.908 90.3255 116.429 90.1875 115.882 90.1875C115.095 90.1875 114.481 90.5 114.038 91.125C113.595 91.7448 113.374 92.6562 113.374 93.8594ZM127.803 96.9297C127.241 97.7474 126.342 98.1562 125.108 98.1562C124.207 98.1562 123.522 97.8958 123.053 97.375C122.584 96.849 122.345 96.0729 122.334 95.0469V89.5469H123.264V94.9297C123.264 96.5391 123.915 97.3438 125.217 97.3438C126.571 97.3438 127.428 96.7839 127.787 95.6641V89.5469H128.725V98H127.819L127.803 96.9297ZM137.138 98C137.045 97.7344 136.985 97.3411 136.959 96.8203C136.631 97.2474 136.211 97.5781 135.701 97.8125C135.196 98.0417 134.659 98.1562 134.092 98.1562C133.279 98.1562 132.62 97.9297 132.115 97.4766C131.615 97.0234 131.365 96.4505 131.365 95.7578C131.365 94.9349 131.706 94.2839 132.388 93.8047C133.076 93.3255 134.032 93.0859 135.256 93.0859H136.951V92.125C136.951 91.5208 136.763 91.0469 136.388 90.7031C136.019 90.3542 135.477 90.1797 134.763 90.1797C134.112 90.1797 133.573 90.3464 133.146 90.6797C132.719 91.013 132.506 91.4141 132.506 91.8828L131.568 91.875C131.568 91.2031 131.881 90.6224 132.506 90.1328C133.131 89.638 133.899 89.3906 134.81 89.3906C135.753 89.3906 136.495 89.6276 137.037 90.1016C137.584 90.5703 137.865 91.2266 137.881 92.0703V96.0703C137.881 96.888 137.967 97.5 138.138 97.9062V98H137.138ZM134.201 97.3281C134.826 97.3281 135.383 97.1771 135.873 96.875C136.368 96.5729 136.727 96.1693 136.951 95.6641V93.8047H135.279C134.347 93.8151 133.618 93.987 133.092 94.3203C132.566 94.6484 132.303 95.1016 132.303 95.6797C132.303 96.1536 132.477 96.5469 132.826 96.8594C133.18 97.1719 133.638 97.3281 134.201 97.3281ZM141.872 89.5469L141.903 90.9219C142.216 90.4115 142.607 90.0286 143.075 89.7734C143.544 89.5182 144.065 89.3906 144.638 89.3906C145.971 89.3906 146.818 89.9375 147.177 91.0312C147.479 90.5052 147.883 90.1016 148.388 89.8203C148.893 89.5339 149.45 89.3906 150.06 89.3906C151.872 89.3906 152.797 90.3802 152.833 92.3594V98H151.896V92.4297C151.89 91.6745 151.726 91.1146 151.403 90.75C151.086 90.3854 150.565 90.2031 149.841 90.2031C149.169 90.2135 148.601 90.4323 148.138 90.8594C147.674 91.2812 147.416 91.7969 147.364 92.4062V98H146.427V92.3594C146.422 91.6354 146.25 91.0964 145.911 90.7422C145.578 90.3828 145.062 90.2031 144.364 90.2031C143.776 90.2031 143.271 90.3724 142.849 90.7109C142.427 91.0443 142.114 91.5417 141.911 92.2031V98H140.974V89.5469H141.872ZM165.715 98C165.621 97.7344 165.561 97.3411 165.535 96.8203C165.207 97.2474 164.788 97.5781 164.277 97.8125C163.772 98.0417 163.236 98.1562 162.668 98.1562C161.855 98.1562 161.196 97.9297 160.691 97.4766C160.191 97.0234 159.941 96.4505 159.941 95.7578C159.941 94.9349 160.282 94.2839 160.965 93.8047C161.652 93.3255 162.608 93.0859 163.832 93.0859H165.527V92.125C165.527 91.5208 165.34 91.0469 164.965 90.7031C164.595 90.3542 164.053 90.1797 163.34 90.1797C162.689 90.1797 162.15 90.3464 161.723 90.6797C161.295 91.013 161.082 91.4141 161.082 91.8828L160.144 91.875C160.144 91.2031 160.457 90.6224 161.082 90.1328C161.707 89.638 162.475 89.3906 163.387 89.3906C164.329 89.3906 165.071 89.6276 165.613 90.1016C166.16 90.5703 166.441 91.2266 166.457 92.0703V96.0703C166.457 96.888 166.543 97.5 166.715 97.9062V98H165.715ZM162.777 97.3281C163.402 97.3281 163.959 97.1771 164.449 96.875C164.944 96.5729 165.303 96.1693 165.527 95.6641V93.8047H163.855C162.923 93.8151 162.194 93.987 161.668 94.3203C161.142 94.6484 160.879 95.1016 160.879 95.6797C160.879 96.1536 161.053 96.5469 161.402 96.8594C161.756 97.1719 162.215 97.3281 162.777 97.3281ZM169.402 100.125L168.847 99.7188C169.321 99.0833 169.566 98.4245 169.581 97.7422V96.5312H170.495V97.5078C170.495 98.5911 170.131 99.4635 169.402 100.125ZM184.627 93.8594C184.627 95.1771 184.335 96.224 183.752 97C183.169 97.7708 182.387 98.1562 181.408 98.1562C180.252 98.1562 179.366 97.75 178.752 96.9375V101.25H177.822V89.5469H178.689L178.736 90.7422C179.346 89.8411 180.228 89.3906 181.385 89.3906C182.395 89.3906 183.187 89.7734 183.76 90.5391C184.338 91.3047 184.627 92.3672 184.627 93.7266V93.8594ZM183.689 93.6953C183.689 92.6172 183.468 91.7656 183.025 91.1406C182.583 90.5156 181.965 90.2031 181.174 90.2031C180.601 90.2031 180.109 90.3411 179.697 90.6172C179.286 90.8932 178.971 91.2943 178.752 91.8203V95.875C178.976 96.3594 179.296 96.7292 179.713 96.9844C180.129 97.2396 180.622 97.3672 181.189 97.3672C181.976 97.3672 182.588 97.0547 183.025 96.4297C183.468 95.7995 183.689 94.888 183.689 93.6953ZM188.275 90.9766C188.582 90.4714 188.975 90.0807 189.454 89.8047C189.934 89.5286 190.457 89.3906 191.025 89.3906C191.931 89.3906 192.605 89.6458 193.048 90.1562C193.491 90.6667 193.715 91.4323 193.72 92.4531V98H192.79V92.4453C192.785 91.6901 192.624 91.1276 192.306 90.7578C191.993 90.388 191.491 90.2031 190.798 90.2031C190.22 90.2031 189.707 90.3854 189.259 90.75C188.816 91.1094 188.488 91.5964 188.275 92.2109V98H187.345V86H188.275V90.9766ZM202.102 98C202.008 97.7344 201.949 97.3411 201.923 96.8203C201.594 97.2474 201.175 97.5781 200.665 97.8125C200.159 98.0417 199.623 98.1562 199.055 98.1562C198.243 98.1562 197.584 97.9297 197.079 97.4766C196.579 97.0234 196.329 96.4505 196.329 95.7578C196.329 94.9349 196.67 94.2839 197.352 93.8047C198.04 93.3255 198.995 93.0859 200.219 93.0859H201.915V92.125C201.915 91.5208 201.727 91.0469 201.352 90.7031C200.982 90.3542 200.441 90.1797 199.727 90.1797C199.076 90.1797 198.537 90.3464 198.11 90.6797C197.683 91.013 197.469 91.4141 197.469 91.8828L196.532 91.875C196.532 91.2031 196.844 90.6224 197.469 90.1328C198.094 89.638 198.863 89.3906 199.774 89.3906C200.717 89.3906 201.459 89.6276 202.001 90.1016C202.548 90.5703 202.829 91.2266 202.844 92.0703V96.0703C202.844 96.888 202.93 97.5 203.102 97.9062V98H202.102ZM199.165 97.3281C199.79 97.3281 200.347 97.1771 200.837 96.875C201.331 96.5729 201.691 96.1693 201.915 95.6641V93.8047H200.243C199.311 93.8151 198.581 93.987 198.055 94.3203C197.529 94.6484 197.266 95.1016 197.266 95.6797C197.266 96.1536 197.441 96.5469 197.79 96.8594C198.144 97.1719 198.602 97.3281 199.165 97.3281ZM209.891 90.3438C209.693 90.3073 209.482 90.2891 209.258 90.2891C208.674 90.2891 208.18 90.4531 207.773 90.7812C207.372 91.1042 207.086 91.5755 206.914 92.1953V98H205.984V89.5469H206.898L206.914 90.8906C207.409 89.8906 208.203 89.3906 209.297 89.3906C209.557 89.3906 209.763 89.4245 209.914 89.4922L209.891 90.3438ZM215.132 98.1562C214.413 98.1562 213.762 97.9792 213.179 97.625C212.601 97.2708 212.15 96.7786 211.827 96.1484C211.505 95.513 211.343 94.8021 211.343 94.0156V93.6797C211.343 92.8672 211.499 92.1354 211.812 91.4844C212.13 90.8333 212.57 90.3229 213.132 89.9531C213.695 89.5781 214.304 89.3906 214.96 89.3906C215.986 89.3906 216.799 89.7422 217.398 90.4453C218.002 91.1432 218.304 92.099 218.304 93.3125V93.8359H212.273V94.0156C212.273 94.974 212.546 95.7734 213.093 96.4141C213.645 97.0495 214.338 97.3672 215.171 97.3672C215.671 97.3672 216.111 97.276 216.492 97.0938C216.877 96.9115 217.226 96.6198 217.538 96.2188L218.124 96.6641C217.437 97.6589 216.439 98.1562 215.132 98.1562ZM214.96 90.1875C214.257 90.1875 213.663 90.4453 213.179 90.9609C212.7 91.4766 212.408 92.1693 212.304 93.0391H217.374V92.9375C217.348 92.125 217.117 91.4635 216.679 90.9531C216.242 90.4427 215.669 90.1875 214.96 90.1875ZM222.217 87.3828V89.5469H223.967V90.3125H222.217V95.9453C222.217 96.4141 222.301 96.763 222.467 96.9922C222.639 97.2214 222.923 97.3359 223.319 97.3359C223.475 97.3359 223.728 97.3099 224.077 97.2578L224.116 98.0234C223.871 98.112 223.538 98.1562 223.116 98.1562C222.475 98.1562 222.009 97.9714 221.717 97.6016C221.426 97.2266 221.28 96.6771 221.28 95.9531V90.3125H219.725V89.5469H221.28V87.3828H222.217ZM230.451 90.3438C230.253 90.3073 230.042 90.2891 229.818 90.2891C229.235 90.2891 228.74 90.4531 228.334 90.7812C227.933 91.1042 227.647 91.5755 227.475 92.1953V98H226.545V89.5469H227.459L227.475 90.8906C227.969 89.8906 228.764 89.3906 229.857 89.3906C230.118 89.3906 230.324 89.4245 230.475 89.4922L230.451 90.3438ZM237.599 98C237.505 97.7344 237.445 97.3411 237.419 96.8203C237.091 97.2474 236.672 97.5781 236.162 97.8125C235.656 98.0417 235.12 98.1562 234.552 98.1562C233.74 98.1562 233.081 97.9297 232.576 97.4766C232.076 97.0234 231.826 96.4505 231.826 95.7578C231.826 94.9349 232.167 94.2839 232.849 93.8047C233.537 93.3255 234.492 93.0859 235.716 93.0859H237.412V92.125C237.412 91.5208 237.224 91.0469 236.849 90.7031C236.479 90.3542 235.938 90.1797 235.224 90.1797C234.573 90.1797 234.034 90.3464 233.607 90.6797C233.18 91.013 232.966 91.4141 232.966 91.8828L232.029 91.875C232.029 91.2031 232.341 90.6224 232.966 90.1328C233.591 89.638 234.359 89.3906 235.271 89.3906C236.214 89.3906 236.956 89.6276 237.497 90.1016C238.044 90.5703 238.326 91.2266 238.341 92.0703V96.0703C238.341 96.888 238.427 97.5 238.599 97.9062V98H237.599ZM234.662 97.3281C235.287 97.3281 235.844 97.1771 236.333 96.875C236.828 96.5729 237.188 96.1693 237.412 95.6641V93.8047H235.74C234.807 93.8151 234.078 93.987 233.552 94.3203C233.026 94.6484 232.763 95.1016 232.763 95.6797C232.763 96.1536 232.938 96.5469 233.287 96.8594C233.641 97.1719 234.099 97.3281 234.662 97.3281ZM241.395 97.4375C241.395 97.2552 241.453 97.1016 241.567 96.9766C241.687 96.8464 241.851 96.7812 242.059 96.7812C242.268 96.7812 242.432 96.8464 242.552 96.9766C242.671 97.1016 242.731 97.2552 242.731 97.4375C242.731 97.6198 242.671 97.7708 242.552 97.8906C242.432 98.0052 242.268 98.0625 242.059 98.0625C241.851 98.0625 241.687 98.0052 241.567 97.8906C241.453 97.7708 241.395 97.6198 241.395 97.4375Z" fill="#1F3F68"/>
    <path d="M13.793 324.262C13.793 325.655 13.5521 326.879 13.0703 327.934C12.5885 328.982 11.8984 329.789 11 330.355C10.1081 330.915 9.07943 331.195 7.91406 331.195C6.76172 331.195 5.73307 330.915 4.82812 330.355C3.92969 329.789 3.23307 328.985 2.73828 327.943C2.25 326.902 2.0026 325.701 1.99609 324.34V323.539C1.99609 322.152 2.24023 320.928 2.72852 319.867C3.22331 318.806 3.91667 317.995 4.80859 317.436C5.70703 316.869 6.73568 316.586 7.89453 316.586C9.05339 316.586 10.0788 316.866 10.9707 317.426C11.8691 317.979 12.5625 318.78 13.0508 319.828C13.5391 320.87 13.7865 322.084 13.793 323.471V324.262ZM11.3223 323.52C11.3223 321.944 11.0228 320.736 10.4238 319.896C9.83138 319.057 8.98828 318.637 7.89453 318.637C6.82682 318.637 5.99023 319.057 5.38477 319.896C4.78581 320.73 4.47982 321.911 4.4668 323.441V324.262C4.4668 325.824 4.76953 327.032 5.375 327.885C5.98698 328.738 6.83333 329.164 7.91406 329.164C9.00781 329.164 9.84766 328.747 10.4336 327.914C11.026 327.081 11.3223 325.863 11.3223 324.262V323.52ZM28.3332 331H25.8625L19.5246 320.912V331H17.0539V316.781H19.5246L25.882 326.908V316.781H28.3332V331ZM34.5238 329.027H40.9789V331H32.0531V316.781H34.5238V329.027ZM46.2809 331H43.8199V316.781H46.2809V331ZM61.3973 331H58.9266L52.5887 320.912V331H50.118V316.781H52.5887L58.9461 326.908V316.781H61.3973V331ZM73.4277 324.652H67.5879V329.027H74.4141V331H65.1172V316.781H74.3457V318.773H67.5879V322.699H73.4277V324.652ZM90.4379 327.338C90.4379 326.713 90.2165 326.231 89.7738 325.893C89.3376 325.554 88.5466 325.212 87.4008 324.867C86.2549 324.522 85.3435 324.138 84.6664 323.715C83.3708 322.901 82.723 321.84 82.723 320.531C82.723 319.385 83.1885 318.441 84.1195 317.699C85.057 316.957 86.2712 316.586 87.7621 316.586C88.7517 316.586 89.6339 316.768 90.4086 317.133C91.1833 317.497 91.7921 318.018 92.2348 318.695C92.6775 319.366 92.8988 320.111 92.8988 320.932H90.4379C90.4379 320.189 90.2035 319.61 89.7348 319.193C89.2725 318.77 88.6085 318.559 87.7426 318.559C86.9353 318.559 86.307 318.731 85.8578 319.076C85.4151 319.421 85.1937 319.903 85.1937 320.521C85.1937 321.042 85.4346 321.479 85.9164 321.83C86.3982 322.175 87.1924 322.514 88.2992 322.846C89.406 323.171 90.2947 323.546 90.9652 323.969C91.6358 324.385 92.1273 324.867 92.4398 325.414C92.7523 325.954 92.9086 326.589 92.9086 327.318C92.9086 328.503 92.4529 329.447 91.5414 330.15C90.6365 330.847 89.406 331.195 87.85 331.195C86.8214 331.195 85.8741 331.007 85.0082 330.629C84.1488 330.245 83.4783 329.717 82.9965 329.047C82.5212 328.376 82.2836 327.595 82.2836 326.703H84.7543C84.7543 327.51 85.0212 328.135 85.5551 328.578C86.0889 329.021 86.8539 329.242 87.85 329.242C88.7094 329.242 89.3539 329.07 89.7836 328.725C90.2198 328.373 90.4379 327.911 90.4379 327.338ZM104.187 324.652H98.3473V329.027H105.173V331H95.8766V316.781H105.105V318.773H98.3473V322.699H104.187V324.652ZM113.21 325.521H110.456V331H107.985V316.781H112.985C114.626 316.781 115.892 317.149 116.784 317.885C117.676 318.62 118.122 319.685 118.122 321.078C118.122 322.029 117.891 322.826 117.429 323.471C116.973 324.109 116.335 324.6 115.514 324.945L118.708 330.873V331H116.061L113.21 325.521ZM110.456 323.539H112.995C113.828 323.539 114.479 323.331 114.948 322.914C115.417 322.491 115.651 321.915 115.651 321.186C115.651 320.424 115.433 319.835 114.997 319.418C114.567 319.001 113.923 318.786 113.063 318.773H110.456V323.539ZM126.08 327.904L129.693 316.781H132.408L127.291 331H124.898L119.801 316.781H122.506L126.08 327.904ZM137.427 331H134.966V316.781H137.427V331ZM152.114 326.371C151.97 327.888 151.411 329.073 150.434 329.926C149.457 330.772 148.159 331.195 146.538 331.195C145.405 331.195 144.405 330.928 143.539 330.395C142.68 329.854 142.016 329.089 141.547 328.1C141.079 327.11 140.834 325.961 140.815 324.652V323.324C140.815 321.983 141.052 320.801 141.528 319.779C142.003 318.757 142.683 317.969 143.569 317.416C144.461 316.863 145.489 316.586 146.655 316.586C148.224 316.586 149.487 317.012 150.444 317.865C151.401 318.718 151.957 319.923 152.114 321.479H149.653C149.536 320.456 149.236 319.721 148.754 319.271C148.279 318.816 147.579 318.588 146.655 318.588C145.58 318.588 144.754 318.982 144.174 319.77C143.601 320.551 143.308 321.7 143.295 323.217V324.477C143.295 326.013 143.569 327.185 144.116 327.992C144.669 328.799 145.476 329.203 146.538 329.203C147.508 329.203 148.237 328.985 148.725 328.549C149.213 328.113 149.523 327.387 149.653 326.371H152.114ZM163.441 324.652H157.601V329.027H164.427V331H155.13V316.781H164.359V318.773H157.601V322.699H163.441V324.652Z" fill="#1F3F68"/>
    <g opacity="0.6">
        <path d="M43.5391 415.57C44.1797 414.784 45.013 414.391 46.0391 414.391C47.8255 414.391 48.7266 415.398 48.7422 417.414V423H47.2969V417.406C47.2917 416.797 47.151 416.346 46.875 416.055C46.6042 415.763 46.1797 415.617 45.6016 415.617C45.1328 415.617 44.7214 415.742 44.3672 415.992C44.013 416.242 43.737 416.57 43.5391 416.977V423H42.0938V411H43.5391V415.57ZM55.2141 423.156C54.0682 423.156 53.1359 422.781 52.4172 422.031C51.6984 421.276 51.3391 420.268 51.3391 419.008V418.742C51.3391 417.904 51.4979 417.156 51.8156 416.5C52.1385 415.839 52.5865 415.323 53.1594 414.953C53.7375 414.578 54.3625 414.391 55.0344 414.391C56.1333 414.391 56.9875 414.753 57.5969 415.477C58.2063 416.201 58.5109 417.237 58.5109 418.586V419.188H52.7844C52.8052 420.021 53.0474 420.695 53.5109 421.211C53.9797 421.721 54.5734 421.977 55.2922 421.977C55.8026 421.977 56.2349 421.872 56.5891 421.664C56.9432 421.456 57.2531 421.18 57.5188 420.836L58.4016 421.523C57.6932 422.612 56.6307 423.156 55.2141 423.156ZM55.0344 415.578C54.451 415.578 53.9615 415.792 53.5656 416.219C53.1698 416.641 52.925 417.234 52.8313 418H57.0656V417.891C57.024 417.156 56.826 416.589 56.4719 416.188C56.1177 415.781 55.6385 415.578 55.0344 415.578ZM62.5609 423H61.1156V411H62.5609V423ZM67.2516 423H65.8062V411H67.2516V423ZM69.9891 418.695C69.9891 417.867 70.1505 417.122 70.4734 416.461C70.8016 415.799 71.2547 415.289 71.8328 414.93C72.4161 414.57 73.0802 414.391 73.825 414.391C74.976 414.391 75.9057 414.789 76.6141 415.586C77.3276 416.383 77.6844 417.443 77.6844 418.766V418.867C77.6844 419.69 77.5255 420.43 77.2078 421.086C76.8953 421.737 76.4448 422.245 75.8563 422.609C75.2729 422.974 74.601 423.156 73.8406 423.156C72.6948 423.156 71.7651 422.758 71.0516 421.961C70.3432 421.164 69.9891 420.109 69.9891 418.797V418.695ZM71.4422 418.867C71.4422 419.805 71.6583 420.557 72.0906 421.125C72.5281 421.693 73.1115 421.977 73.8406 421.977C74.575 421.977 75.1583 421.69 75.5906 421.117C76.0229 420.539 76.2391 419.732 76.2391 418.695C76.2391 417.768 76.0177 417.018 75.575 416.445C75.1375 415.867 74.5542 415.578 73.825 415.578C73.1115 415.578 72.5359 415.862 72.0984 416.43C71.6609 416.997 71.4422 417.81 71.4422 418.867ZM80.3281 422.242C80.3281 421.992 80.401 421.784 80.5469 421.617C80.6979 421.451 80.9219 421.367 81.2188 421.367C81.5156 421.367 81.7396 421.451 81.8906 421.617C82.0469 421.784 82.125 421.992 82.125 422.242C82.125 422.482 82.0469 422.682 81.8906 422.844C81.7396 423.005 81.5156 423.086 81.2188 423.086C80.9219 423.086 80.6979 423.005 80.5469 422.844C80.401 422.682 80.3281 422.482 80.3281 422.242ZM90.2375 420.758C90.2375 420.367 90.0891 420.065 89.7922 419.852C89.5005 419.633 88.9875 419.445 88.2531 419.289C87.524 419.133 86.9432 418.945 86.5109 418.727C86.0839 418.508 85.7661 418.247 85.5578 417.945C85.3547 417.643 85.2531 417.284 85.2531 416.867C85.2531 416.174 85.5448 415.589 86.1281 415.109C86.7167 414.63 87.4667 414.391 88.3781 414.391C89.3365 414.391 90.1125 414.638 90.7062 415.133C91.3052 415.628 91.6047 416.26 91.6047 417.031H90.1516C90.1516 416.635 89.9823 416.294 89.6437 416.008C89.3104 415.721 88.8885 415.578 88.3781 415.578C87.8521 415.578 87.4406 415.693 87.1437 415.922C86.8469 416.151 86.6984 416.451 86.6984 416.82C86.6984 417.169 86.8365 417.432 87.1125 417.609C87.3885 417.786 87.8859 417.956 88.6047 418.117C89.3286 418.279 89.9146 418.471 90.3625 418.695C90.8104 418.919 91.1411 419.19 91.3547 419.508C91.5734 419.82 91.6828 420.203 91.6828 420.656C91.6828 421.411 91.3807 422.018 90.7766 422.477C90.1724 422.93 89.3885 423.156 88.425 423.156C87.7479 423.156 87.149 423.036 86.6281 422.797C86.1073 422.557 85.6984 422.224 85.4016 421.797C85.1099 421.365 84.9641 420.898 84.9641 420.398H86.4094C86.4354 420.883 86.6281 421.268 86.9875 421.555C87.3521 421.836 87.8312 421.977 88.425 421.977C88.9719 421.977 89.4094 421.867 89.7375 421.648C90.0708 421.424 90.2375 421.128 90.2375 420.758ZM95.9359 423H94.4906V414.547H95.9359V423ZM94.3734 412.305C94.3734 412.07 94.4437 411.872 94.5844 411.711C94.7302 411.549 94.9437 411.469 95.225 411.469C95.5062 411.469 95.7198 411.549 95.8656 411.711C96.0115 411.872 96.0844 412.07 96.0844 412.305C96.0844 412.539 96.0115 412.734 95.8656 412.891C95.7198 413.047 95.5062 413.125 95.225 413.125C94.9437 413.125 94.7302 413.047 94.5844 412.891C94.4437 412.734 94.3734 412.539 94.3734 412.305ZM101.017 412.5V414.547H102.595V415.664H101.017V420.906C101.017 421.245 101.088 421.5 101.228 421.672C101.369 421.839 101.608 421.922 101.947 421.922C102.114 421.922 102.343 421.891 102.634 421.828V423C102.254 423.104 101.884 423.156 101.525 423.156C100.879 423.156 100.392 422.961 100.064 422.57C99.7359 422.18 99.5719 421.625 99.5719 420.906V415.664H98.0328V414.547H99.5719V412.5H101.017ZM108.598 423.156C107.453 423.156 106.52 422.781 105.802 422.031C105.083 421.276 104.723 420.268 104.723 419.008V418.742C104.723 417.904 104.882 417.156 105.2 416.5C105.523 415.839 105.971 415.323 106.544 414.953C107.122 414.578 107.747 414.391 108.419 414.391C109.518 414.391 110.372 414.753 110.981 415.477C111.591 416.201 111.895 417.237 111.895 418.586V419.188H106.169C106.19 420.021 106.432 420.695 106.895 421.211C107.364 421.721 107.958 421.977 108.677 421.977C109.187 421.977 109.619 421.872 109.973 421.664C110.328 421.456 110.638 421.18 110.903 420.836L111.786 421.523C111.078 422.612 110.015 423.156 108.598 423.156ZM108.419 415.578C107.835 415.578 107.346 415.792 106.95 416.219C106.554 416.641 106.309 417.234 106.216 418H110.45V417.891C110.408 417.156 110.21 416.589 109.856 416.188C109.502 415.781 109.023 415.578 108.419 415.578ZM126.859 419.078C126.797 420.339 126.484 421.333 125.922 422.062C125.359 422.792 124.607 423.156 123.664 423.156C122.69 423.156 122.065 422.719 121.789 421.844C121.508 422.286 121.185 422.617 120.82 422.836C120.461 423.049 120.089 423.156 119.703 423.156C118.964 423.156 118.404 422.854 118.023 422.25C117.643 421.646 117.503 420.81 117.602 419.742C117.68 418.883 117.875 418.117 118.188 417.445C118.505 416.768 118.911 416.237 119.406 415.852C119.906 415.466 120.43 415.273 120.977 415.273C121.398 415.273 121.776 415.331 122.109 415.445C122.443 415.555 122.818 415.773 123.234 416.102L122.828 420.43C122.729 421.633 123.062 422.234 123.828 422.234C124.417 422.234 124.893 421.943 125.258 421.359C125.622 420.776 125.82 420.016 125.852 419.078C125.951 417.052 125.573 415.508 124.719 414.445C123.87 413.383 122.576 412.852 120.836 412.852C119.789 412.852 118.859 413.112 118.047 413.633C117.234 414.148 116.594 414.896 116.125 415.875C115.656 416.854 115.393 417.984 115.336 419.266C115.273 420.557 115.43 421.68 115.805 422.633C116.18 423.581 116.75 424.305 117.516 424.805C118.286 425.31 119.216 425.562 120.305 425.562C120.773 425.562 121.242 425.505 121.711 425.391C122.185 425.276 122.578 425.128 122.891 424.945L123.18 425.844C122.857 426.047 122.427 426.214 121.891 426.344C121.359 426.474 120.82 426.539 120.273 426.539C118.971 426.539 117.852 426.245 116.914 425.656C115.977 425.073 115.273 424.229 114.805 423.125C114.341 422.026 114.141 420.74 114.203 419.266C114.266 417.833 114.586 416.547 115.164 415.406C115.742 414.26 116.526 413.378 117.516 412.758C118.505 412.133 119.622 411.82 120.867 411.82C122.164 411.82 123.276 412.112 124.203 412.695C125.13 413.279 125.82 414.12 126.273 415.219C126.727 416.318 126.922 417.604 126.859 419.078ZM118.844 419.742C118.771 420.482 118.839 421.049 119.047 421.445C119.26 421.841 119.596 422.039 120.055 422.039C120.367 422.039 120.667 421.906 120.953 421.641C121.245 421.375 121.484 420.995 121.672 420.5L121.68 420.43L122.039 416.5C121.747 416.349 121.435 416.273 121.102 416.273C120.492 416.273 119.987 416.583 119.586 417.203C119.19 417.823 118.943 418.669 118.844 419.742ZM129.206 418.703C129.206 417.385 129.511 416.339 130.12 415.562C130.73 414.781 131.537 414.391 132.542 414.391C133.573 414.391 134.378 414.755 134.956 415.484L135.027 414.547H136.347V422.797C136.347 423.891 136.021 424.753 135.37 425.383C134.724 426.013 133.855 426.328 132.761 426.328C132.152 426.328 131.555 426.198 130.972 425.938C130.389 425.677 129.943 425.32 129.636 424.867L130.386 424C131.006 424.766 131.764 425.148 132.659 425.148C133.363 425.148 133.909 424.951 134.3 424.555C134.696 424.159 134.894 423.602 134.894 422.883V422.156C134.316 422.823 133.527 423.156 132.527 423.156C131.537 423.156 130.735 422.758 130.12 421.961C129.511 421.164 129.206 420.078 129.206 418.703ZM130.659 418.867C130.659 419.82 130.855 420.57 131.245 421.117C131.636 421.659 132.183 421.93 132.886 421.93C133.797 421.93 134.467 421.516 134.894 420.688V416.828C134.451 416.021 133.787 415.617 132.902 415.617C132.198 415.617 131.649 415.891 131.253 416.438C130.857 416.984 130.659 417.794 130.659 418.867ZM140.694 414.547L140.733 415.484C141.353 414.755 142.189 414.391 143.241 414.391C144.423 414.391 145.228 414.844 145.655 415.75C145.936 415.344 146.301 415.016 146.748 414.766C147.202 414.516 147.735 414.391 148.35 414.391C150.204 414.391 151.147 415.372 151.178 417.336V423H149.733V417.422C149.733 416.818 149.595 416.367 149.319 416.07C149.043 415.768 148.579 415.617 147.928 415.617C147.392 415.617 146.946 415.779 146.592 416.102C146.238 416.419 146.032 416.849 145.975 417.391V423H144.522V417.461C144.522 416.232 143.92 415.617 142.717 415.617C141.769 415.617 141.121 416.021 140.772 416.828V423H139.327V414.547H140.694ZM159.384 423C159.301 422.833 159.233 422.536 159.181 422.109C158.509 422.807 157.707 423.156 156.775 423.156C155.942 423.156 155.257 422.922 154.72 422.453C154.189 421.979 153.923 421.38 153.923 420.656C153.923 419.776 154.257 419.094 154.923 418.609C155.595 418.12 156.538 417.875 157.752 417.875H159.158V417.211C159.158 416.706 159.007 416.305 158.705 416.008C158.403 415.706 157.957 415.555 157.369 415.555C156.853 415.555 156.421 415.685 156.072 415.945C155.723 416.206 155.548 416.521 155.548 416.891H154.095C154.095 416.469 154.244 416.062 154.541 415.672C154.843 415.276 155.249 414.964 155.759 414.734C156.275 414.505 156.84 414.391 157.455 414.391C158.429 414.391 159.192 414.635 159.744 415.125C160.296 415.609 160.582 416.279 160.603 417.133V421.023C160.603 421.799 160.702 422.417 160.9 422.875V423H159.384ZM156.986 421.898C157.439 421.898 157.869 421.781 158.275 421.547C158.681 421.312 158.976 421.008 159.158 420.633V418.898H158.025C156.254 418.898 155.369 419.417 155.369 420.453C155.369 420.906 155.52 421.26 155.822 421.516C156.124 421.771 156.512 421.898 156.986 421.898ZM165.239 423H163.794V414.547H165.239V423ZM163.677 412.305C163.677 412.07 163.747 411.872 163.887 411.711C164.033 411.549 164.247 411.469 164.528 411.469C164.809 411.469 165.023 411.549 165.169 411.711C165.315 411.872 165.387 412.07 165.387 412.305C165.387 412.539 165.315 412.734 165.169 412.891C165.023 413.047 164.809 413.125 164.528 413.125C164.247 413.125 164.033 413.047 163.887 412.891C163.747 412.734 163.677 412.539 163.677 412.305ZM169.93 423H168.484V411H169.93V423ZM173.081 422.242C173.081 421.992 173.154 421.784 173.3 421.617C173.451 421.451 173.675 421.367 173.972 421.367C174.269 421.367 174.493 421.451 174.644 421.617C174.8 421.784 174.878 421.992 174.878 422.242C174.878 422.482 174.8 422.682 174.644 422.844C174.493 423.005 174.269 423.086 173.972 423.086C173.675 423.086 173.451 423.005 173.3 422.844C173.154 422.682 173.081 422.482 173.081 422.242ZM181.459 421.977C181.975 421.977 182.426 421.82 182.811 421.508C183.196 421.195 183.41 420.805 183.452 420.336H184.819C184.793 420.82 184.626 421.281 184.319 421.719C184.011 422.156 183.6 422.505 183.084 422.766C182.574 423.026 182.032 423.156 181.459 423.156C180.308 423.156 179.392 422.773 178.709 422.008C178.032 421.237 177.694 420.185 177.694 418.852V418.609C177.694 417.786 177.845 417.055 178.147 416.414C178.449 415.773 178.881 415.276 179.444 414.922C180.011 414.568 180.681 414.391 181.452 414.391C182.399 414.391 183.186 414.674 183.811 415.242C184.441 415.81 184.777 416.547 184.819 417.453H183.452C183.41 416.906 183.202 416.458 182.827 416.109C182.457 415.755 181.998 415.578 181.452 415.578C180.717 415.578 180.147 415.844 179.741 416.375C179.34 416.901 179.139 417.664 179.139 418.664V418.938C179.139 419.911 179.34 420.661 179.741 421.188C180.142 421.714 180.715 421.977 181.459 421.977ZM186.861 418.695C186.861 417.867 187.022 417.122 187.345 416.461C187.673 415.799 188.127 415.289 188.705 414.93C189.288 414.57 189.952 414.391 190.697 414.391C191.848 414.391 192.778 414.789 193.486 415.586C194.199 416.383 194.556 417.443 194.556 418.766V418.867C194.556 419.69 194.397 420.43 194.08 421.086C193.767 421.737 193.317 422.245 192.728 422.609C192.145 422.974 191.473 423.156 190.712 423.156C189.567 423.156 188.637 422.758 187.923 421.961C187.215 421.164 186.861 420.109 186.861 418.797V418.695ZM188.314 418.867C188.314 419.805 188.53 420.557 188.962 421.125C189.4 421.693 189.983 421.977 190.712 421.977C191.447 421.977 192.03 421.69 192.462 421.117C192.895 420.539 193.111 419.732 193.111 418.695C193.111 417.768 192.89 417.018 192.447 416.445C192.009 415.867 191.426 415.578 190.697 415.578C189.983 415.578 189.408 415.862 188.97 416.43C188.533 416.997 188.314 417.81 188.314 418.867ZM198.528 414.547L198.567 415.484C199.187 414.755 200.023 414.391 201.075 414.391C202.257 414.391 203.062 414.844 203.489 415.75C203.77 415.344 204.135 415.016 204.583 414.766C205.036 414.516 205.57 414.391 206.184 414.391C208.039 414.391 208.981 415.372 209.012 417.336V423H207.567V417.422C207.567 416.818 207.429 416.367 207.153 416.07C206.877 415.768 206.414 415.617 205.762 415.617C205.226 415.617 204.781 415.779 204.427 416.102C204.072 416.419 203.867 416.849 203.809 417.391V423H202.356V417.461C202.356 416.232 201.755 415.617 200.552 415.617C199.604 415.617 198.955 416.021 198.606 416.828V423H197.161V414.547H198.528Z" fill="#1F3F68"/>
        <path d="M21 410H5C3.9 410 3.01 410.9 3.01 412L3 424C3 425.1 3.9 426 5 426H21C22.1 426 23 425.1 23 424V412C23 410.9 22.1 410 21 410ZM21 414L13 419L5 414V412L13 417L21 412V414Z" fill="#1F3F68"/>
        <path d="M49.5781 379.008L51.2031 372.547H52.6484L50.1875 381H49.0156L46.9609 374.594L44.9609 381H43.7891L41.3359 372.547H42.7734L44.4375 378.875L46.4062 372.547H47.5703L49.5781 379.008ZM62.4094 379.008L64.0344 372.547H65.4797L63.0188 381H61.8469L59.7922 374.594L57.7922 381H56.6203L54.1672 372.547H55.6047L57.2688 378.875L59.2375 372.547H60.4016L62.4094 379.008ZM75.2406 379.008L76.8656 372.547H78.3109L75.85 381H74.6781L72.6234 374.594L70.6234 381H69.4516L66.9984 372.547H68.4359L70.1 378.875L72.0688 372.547H73.2328L75.2406 379.008ZM79.65 380.242C79.65 379.992 79.7229 379.784 79.8688 379.617C80.0198 379.451 80.2438 379.367 80.5406 379.367C80.8375 379.367 81.0615 379.451 81.2125 379.617C81.3688 379.784 81.4469 379.992 81.4469 380.242C81.4469 380.482 81.3688 380.682 81.2125 380.844C81.0615 381.005 80.8375 381.086 80.5406 381.086C80.2438 381.086 80.0198 381.005 79.8688 380.844C79.7229 380.682 79.65 380.482 79.65 380.242ZM89.5594 378.758C89.5594 378.367 89.4109 378.065 89.1141 377.852C88.8224 377.633 88.3094 377.445 87.575 377.289C86.8458 377.133 86.2651 376.945 85.8328 376.727C85.4057 376.508 85.088 376.247 84.8797 375.945C84.6766 375.643 84.575 375.284 84.575 374.867C84.575 374.174 84.8667 373.589 85.45 373.109C86.0385 372.63 86.7885 372.391 87.7 372.391C88.6583 372.391 89.4344 372.638 90.0281 373.133C90.6271 373.628 90.9266 374.26 90.9266 375.031H89.4734C89.4734 374.635 89.3042 374.294 88.9656 374.008C88.6323 373.721 88.2104 373.578 87.7 373.578C87.174 373.578 86.7625 373.693 86.4656 373.922C86.1688 374.151 86.0203 374.451 86.0203 374.82C86.0203 375.169 86.1583 375.432 86.4344 375.609C86.7104 375.786 87.2078 375.956 87.9266 376.117C88.6505 376.279 89.2365 376.471 89.6844 376.695C90.1323 376.919 90.463 377.19 90.6766 377.508C90.8953 377.82 91.0047 378.203 91.0047 378.656C91.0047 379.411 90.7026 380.018 90.0984 380.477C89.4943 380.93 88.7104 381.156 87.7469 381.156C87.0698 381.156 86.4708 381.036 85.95 380.797C85.4292 380.557 85.0203 380.224 84.7234 379.797C84.4318 379.365 84.2859 378.898 84.2859 378.398H85.7313C85.7573 378.883 85.95 379.268 86.3094 379.555C86.674 379.836 87.1531 379.977 87.7469 379.977C88.2938 379.977 88.7313 379.867 89.0594 379.648C89.3927 379.424 89.5594 379.128 89.5594 378.758ZM95.2578 381H93.8125V372.547H95.2578V381ZM93.6953 370.305C93.6953 370.07 93.7656 369.872 93.9062 369.711C94.0521 369.549 94.2656 369.469 94.5469 369.469C94.8281 369.469 95.0417 369.549 95.1875 369.711C95.3333 369.872 95.4062 370.07 95.4062 370.305C95.4062 370.539 95.3333 370.734 95.1875 370.891C95.0417 371.047 94.8281 371.125 94.5469 371.125C94.2656 371.125 94.0521 371.047 93.9062 370.891C93.7656 370.734 93.6953 370.539 93.6953 370.305ZM100.339 370.5V372.547H101.917V373.664H100.339V378.906C100.339 379.245 100.409 379.5 100.55 379.672C100.691 379.839 100.93 379.922 101.269 379.922C101.435 379.922 101.665 379.891 101.956 379.828V381C101.576 381.104 101.206 381.156 100.847 381.156C100.201 381.156 99.7141 380.961 99.3859 380.57C99.0578 380.18 98.8937 379.625 98.8937 378.906V373.664H97.3547V372.547H98.8937V370.5H100.339ZM107.92 381.156C106.774 381.156 105.842 380.781 105.123 380.031C104.405 379.276 104.045 378.268 104.045 377.008V376.742C104.045 375.904 104.204 375.156 104.522 374.5C104.845 373.839 105.293 373.323 105.866 372.953C106.444 372.578 107.069 372.391 107.741 372.391C108.84 372.391 109.694 372.753 110.303 373.477C110.912 374.201 111.217 375.237 111.217 376.586V377.188H105.491C105.511 378.021 105.754 378.695 106.217 379.211C106.686 379.721 107.28 379.977 107.998 379.977C108.509 379.977 108.941 379.872 109.295 379.664C109.649 379.456 109.959 379.18 110.225 378.836L111.108 379.523C110.399 380.612 109.337 381.156 107.92 381.156ZM107.741 373.578C107.157 373.578 106.668 373.792 106.272 374.219C105.876 374.641 105.631 375.234 105.537 376H109.772V375.891C109.73 375.156 109.532 374.589 109.178 374.188C108.824 373.781 108.345 373.578 107.741 373.578ZM113.728 380.242C113.728 379.992 113.801 379.784 113.947 379.617C114.098 379.451 114.322 379.367 114.619 379.367C114.916 379.367 115.14 379.451 115.291 379.617C115.447 379.784 115.525 379.992 115.525 380.242C115.525 380.482 115.447 380.682 115.291 380.844C115.14 381.005 114.916 381.086 114.619 381.086C114.322 381.086 114.098 381.005 113.947 380.844C113.801 380.682 113.728 380.482 113.728 380.242ZM122.106 379.977C122.622 379.977 123.072 379.82 123.458 379.508C123.843 379.195 124.057 378.805 124.098 378.336H125.466C125.44 378.82 125.273 379.281 124.966 379.719C124.658 380.156 124.247 380.505 123.731 380.766C123.221 381.026 122.679 381.156 122.106 381.156C120.955 381.156 120.039 380.773 119.356 380.008C118.679 379.237 118.341 378.185 118.341 376.852V376.609C118.341 375.786 118.492 375.055 118.794 374.414C119.096 373.773 119.528 373.276 120.091 372.922C120.658 372.568 121.328 372.391 122.098 372.391C123.046 372.391 123.833 372.674 124.458 373.242C125.088 373.81 125.424 374.547 125.466 375.453H124.098C124.057 374.906 123.848 374.458 123.473 374.109C123.104 373.755 122.645 373.578 122.098 373.578C121.364 373.578 120.794 373.844 120.387 374.375C119.986 374.901 119.786 375.664 119.786 376.664V376.938C119.786 377.911 119.986 378.661 120.387 379.188C120.789 379.714 121.361 379.977 122.106 379.977ZM127.508 376.695C127.508 375.867 127.669 375.122 127.992 374.461C128.32 373.799 128.773 373.289 129.352 372.93C129.935 372.57 130.599 372.391 131.344 372.391C132.495 372.391 133.424 372.789 134.133 373.586C134.846 374.383 135.203 375.443 135.203 376.766V376.867C135.203 377.69 135.044 378.43 134.727 379.086C134.414 379.737 133.964 380.245 133.375 380.609C132.792 380.974 132.12 381.156 131.359 381.156C130.214 381.156 129.284 380.758 128.57 379.961C127.862 379.164 127.508 378.109 127.508 376.797V376.695ZM128.961 376.867C128.961 377.805 129.177 378.557 129.609 379.125C130.047 379.693 130.63 379.977 131.359 379.977C132.094 379.977 132.677 379.69 133.109 379.117C133.542 378.539 133.758 377.732 133.758 376.695C133.758 375.768 133.536 375.018 133.094 374.445C132.656 373.867 132.073 373.578 131.344 373.578C130.63 373.578 130.055 373.862 129.617 374.43C129.18 374.997 128.961 375.81 128.961 376.867ZM139.175 372.547L139.214 373.484C139.834 372.755 140.67 372.391 141.722 372.391C142.904 372.391 143.709 372.844 144.136 373.75C144.417 373.344 144.782 373.016 145.23 372.766C145.683 372.516 146.217 372.391 146.831 372.391C148.685 372.391 149.628 373.372 149.659 375.336V381H148.214V375.422C148.214 374.818 148.076 374.367 147.8 374.07C147.524 373.768 147.06 373.617 146.409 373.617C145.873 373.617 145.428 373.779 145.073 374.102C144.719 374.419 144.514 374.849 144.456 375.391V381H143.003V375.461C143.003 374.232 142.402 373.617 141.198 373.617C140.251 373.617 139.602 374.021 139.253 374.828V381H137.808V372.547H139.175Z" fill="#1F3F68"/>
        <path d="M12.99 366C7.47 366 3 370.48 3 376C3 381.52 7.47 386 12.99 386C18.52 386 23 381.52 23 376C23 370.48 18.52 366 12.99 366ZM19.92 372H16.97C16.65 370.75 16.19 369.55 15.59 368.44C17.43 369.07 18.96 370.35 19.92 372ZM13 368.04C13.83 369.24 14.48 370.57 14.91 372H11.09C11.52 370.57 12.17 369.24 13 368.04ZM5.26 378C5.1 377.36 5 376.69 5 376C5 375.31 5.1 374.64 5.26 374H8.64C8.56 374.66 8.5 375.32 8.5 376C8.5 376.68 8.56 377.34 8.64 378H5.26ZM6.08 380H9.03C9.35 381.25 9.81 382.45 10.41 383.56C8.57 382.93 7.04 381.66 6.08 380ZM9.03 372H6.08C7.04 370.34 8.57 369.07 10.41 368.44C9.81 369.55 9.35 370.75 9.03 372ZM13 383.96C12.17 382.76 11.52 381.43 11.09 380H14.91C14.48 381.43 13.83 382.76 13 383.96ZM15.34 378H10.66C10.57 377.34 10.5 376.68 10.5 376C10.5 375.32 10.57 374.65 10.66 374H15.34C15.43 374.65 15.5 375.32 15.5 376C15.5 376.68 15.43 377.34 15.34 378ZM15.59 383.56C16.19 382.45 16.65 381.25 16.97 380H19.92C18.96 381.65 17.43 382.93 15.59 383.56ZM17.36 378C17.44 377.34 17.5 376.68 17.5 376C17.5 375.32 17.44 374.66 17.36 374H20.74C20.9 374.64 21 375.31 21 376C21 376.69 20.9 377.36 20.74 378H17.36Z" fill="#1F3F68"/>
    </g>
    <path d="M3.91602 163.717V169H1.44531V154.781H6.88477C8.47331 154.781 9.73307 155.195 10.6641 156.021C11.6016 156.848 12.0703 157.942 12.0703 159.303C12.0703 160.696 11.6113 161.78 10.6934 162.555C9.7819 163.329 8.5026 163.717 6.85547 163.717H3.91602ZM3.91602 161.734H6.88477C7.76367 161.734 8.43424 161.529 8.89648 161.119C9.35872 160.702 9.58984 160.104 9.58984 159.322C9.58984 158.554 9.35547 157.942 8.88672 157.486C8.41797 157.024 7.77344 156.786 6.95312 156.773H3.91602V161.734ZM26.3273 169H23.8664V162.682H17.509V169H15.0383V154.781H17.509V160.699H23.8664V154.781H26.3273V169ZM41.4047 162.262C41.4047 163.655 41.1638 164.879 40.682 165.934C40.2003 166.982 39.5102 167.789 38.6117 168.355C37.7198 168.915 36.6911 169.195 35.5258 169.195C34.3734 169.195 33.3448 168.915 32.4398 168.355C31.5414 167.789 30.8448 166.985 30.35 165.943C29.8617 164.902 29.6143 163.701 29.6078 162.34V161.539C29.6078 160.152 29.852 158.928 30.3402 157.867C30.835 156.806 31.5284 155.995 32.4203 155.436C33.3188 154.869 34.3474 154.586 35.5063 154.586C36.6651 154.586 37.6905 154.866 38.5824 155.426C39.4809 155.979 40.1742 156.78 40.6625 157.828C41.1508 158.87 41.3982 160.084 41.4047 161.471V162.262ZM38.934 161.52C38.934 159.944 38.6345 158.736 38.0355 157.896C37.4431 157.057 36.6 156.637 35.5063 156.637C34.4385 156.637 33.602 157.057 32.9965 157.896C32.3975 158.73 32.0915 159.911 32.0785 161.441V162.262C32.0785 163.824 32.3813 165.032 32.9867 165.885C33.5987 166.738 34.4451 167.164 35.5258 167.164C36.6195 167.164 37.4594 166.747 38.0453 165.914C38.6378 165.081 38.934 163.863 38.934 162.262V161.52ZM55.9449 169H53.4742L47.1363 158.912V169H44.6656V154.781H47.1363L53.4938 164.908V154.781H55.9449V169ZM67.9754 162.652H62.1355V167.027H68.9617V169H59.6648V154.781H68.8934V156.773H62.1355V160.699H67.9754V162.652Z" fill="#1F3F68"/>
    <g opacity="0.6">
        <path d="M45.9219 255.219H49.3828V256.094H45.9219V259.859H44.9766V256.094H41.5859V255.219H44.9766V251.578H45.9219V255.219ZM58.7494 250.164L53.89 261H52.9134L57.7416 250.422H51.2728V249.625H58.7494V250.164ZM64.3113 256.375H60.5691V255.586H64.3113V256.375ZM73.1778 252.555C73.1778 253.143 73.0059 253.672 72.6622 254.141C72.3184 254.604 71.8653 254.945 71.3028 255.164C71.9591 255.388 72.4851 255.75 72.8809 256.25C73.2768 256.75 73.4747 257.328 73.4747 257.984C73.4747 258.958 73.144 259.732 72.4825 260.305C71.821 260.872 70.946 261.156 69.8575 261.156C68.7585 261.156 67.8783 260.872 67.2169 260.305C66.5606 259.737 66.2325 258.964 66.2325 257.984C66.2325 257.339 66.4226 256.763 66.8028 256.258C67.183 255.753 67.7039 255.388 68.3653 255.164C67.8028 254.945 67.3549 254.604 67.0216 254.141C66.6882 253.672 66.5216 253.143 66.5216 252.555C66.5216 251.612 66.8236 250.862 67.4278 250.305C68.0372 249.747 68.8419 249.469 69.8419 249.469C70.8419 249.469 71.6466 249.75 72.2559 250.312C72.8705 250.875 73.1778 251.622 73.1778 252.555ZM72.5372 257.992C72.5372 257.284 72.2846 256.703 71.7794 256.25C71.2742 255.792 70.6283 255.562 69.8419 255.562C69.0554 255.562 68.4122 255.786 67.9122 256.234C67.4122 256.682 67.1622 257.268 67.1622 257.992C67.1622 258.716 67.4044 259.294 67.8888 259.727C68.3731 260.154 69.0294 260.367 69.8575 260.367C70.6648 260.367 71.3132 260.154 71.8028 259.727C72.2924 259.299 72.5372 258.721 72.5372 257.992ZM72.2403 252.547C72.2403 251.896 72.0138 251.354 71.5606 250.922C71.1127 250.484 70.5398 250.266 69.8419 250.266C69.1335 250.266 68.558 250.477 68.1153 250.898C67.6778 251.315 67.4591 251.865 67.4591 252.547C67.4591 253.214 67.6778 253.75 68.1153 254.156C68.558 254.562 69.1361 254.766 69.8497 254.766C70.5528 254.766 71.1257 254.562 71.5684 254.156C72.0164 253.745 72.2403 253.208 72.2403 252.547ZM80.3413 261H79.4038V250.75L76.31 251.898V251.023L80.185 249.586H80.3413V261ZM92.5125 250.164L87.6531 261H86.6766L91.5047 250.422H85.0359V249.625H92.5125V250.164ZM98.0744 256.375H94.3322V255.586H98.0744V256.375ZM107.097 256.258C107.097 257.862 106.803 259.081 106.214 259.914C105.626 260.742 104.759 261.156 103.613 261.156C102.488 261.156 101.626 260.75 101.027 259.938C100.428 259.12 100.121 257.932 100.105 256.375V254.336C100.105 252.737 100.402 251.526 100.996 250.703C101.589 249.88 102.457 249.469 103.597 249.469C104.722 249.469 105.582 249.867 106.175 250.664C106.769 251.456 107.076 252.625 107.097 254.172V256.258ZM106.16 254.219C106.16 252.917 105.946 251.932 105.519 251.266C105.097 250.599 104.457 250.266 103.597 250.266C102.753 250.266 102.118 250.591 101.691 251.242C101.264 251.893 101.045 252.854 101.035 254.125V256.359C101.035 257.656 101.253 258.648 101.691 259.336C102.134 260.023 102.774 260.367 103.613 260.367C104.446 260.367 105.076 260.031 105.503 259.359C105.936 258.688 106.154 257.703 106.16 256.406V254.219ZM116.612 256.258C116.612 257.862 116.318 259.081 115.729 259.914C115.141 260.742 114.274 261.156 113.128 261.156C112.003 261.156 111.141 260.75 110.542 259.938C109.943 259.12 109.636 257.932 109.62 256.375V254.336C109.62 252.737 109.917 251.526 110.511 250.703C111.104 249.88 111.972 249.469 113.112 249.469C114.237 249.469 115.097 249.867 115.69 250.664C116.284 251.456 116.591 252.625 116.612 254.172V256.258ZM115.675 254.219C115.675 252.917 115.461 251.932 115.034 251.266C114.612 250.599 113.972 250.266 113.112 250.266C112.268 250.266 111.633 250.591 111.206 251.242C110.779 251.893 110.56 252.854 110.55 254.125V256.359C110.55 257.656 110.768 258.648 111.206 259.336C111.649 260.023 112.289 260.367 113.128 260.367C113.961 260.367 114.591 260.031 115.018 259.359C115.451 258.688 115.669 257.703 115.675 256.406V254.219ZM126.127 256.258C126.127 257.862 125.833 259.081 125.244 259.914C124.656 260.742 123.789 261.156 122.643 261.156C121.518 261.156 120.656 260.75 120.057 259.938C119.458 259.12 119.151 257.932 119.135 256.375V254.336C119.135 252.737 119.432 251.526 120.026 250.703C120.619 249.88 121.487 249.469 122.627 249.469C123.752 249.469 124.612 249.867 125.205 250.664C125.799 251.456 126.106 252.625 126.127 254.172V256.258ZM125.19 254.219C125.19 252.917 124.976 251.932 124.549 251.266C124.127 250.599 123.487 250.266 122.627 250.266C121.783 250.266 121.148 250.591 120.721 251.242C120.294 251.893 120.075 252.854 120.065 254.125V256.359C120.065 257.656 120.283 258.648 120.721 259.336C121.164 260.023 121.804 260.367 122.643 260.367C123.476 260.367 124.106 260.031 124.533 259.359C124.966 258.688 125.184 257.703 125.19 256.406V254.219ZM135.642 256.258C135.642 257.862 135.348 259.081 134.759 259.914C134.171 260.742 133.304 261.156 132.158 261.156C131.033 261.156 130.171 260.75 129.572 259.938C128.973 259.12 128.666 257.932 128.65 256.375V254.336C128.65 252.737 128.947 251.526 129.541 250.703C130.134 249.88 131.002 249.469 132.142 249.469C133.267 249.469 134.127 249.867 134.72 250.664C135.314 251.456 135.621 252.625 135.642 254.172V256.258ZM134.705 254.219C134.705 252.917 134.491 251.932 134.064 251.266C133.642 250.599 133.002 250.266 132.142 250.266C131.298 250.266 130.663 250.591 130.236 251.242C129.809 251.893 129.59 252.854 129.58 254.125V256.359C129.58 257.656 129.798 258.648 130.236 259.336C130.679 260.023 131.319 260.367 132.158 260.367C132.991 260.367 133.621 260.031 134.048 259.359C134.481 258.688 134.699 257.703 134.705 256.406V254.219ZM141.353 256.375H137.61V255.586H141.353V256.375ZM147.868 261H146.93V250.75L143.836 251.898V251.023L147.711 249.586H147.868V261ZM160.156 261H153.031V260.281L156.929 255.859C157.575 255.115 158.023 254.5 158.273 254.016C158.523 253.531 158.648 253.06 158.648 252.602C158.648 251.883 158.437 251.315 158.015 250.898C157.593 250.477 157.013 250.266 156.273 250.266C155.507 250.266 154.888 250.51 154.414 251C153.945 251.49 153.711 252.125 153.711 252.906H152.781C152.781 252.266 152.924 251.682 153.211 251.156C153.502 250.63 153.914 250.219 154.445 249.922C154.981 249.62 155.591 249.469 156.273 249.469C157.315 249.469 158.127 249.742 158.711 250.289C159.299 250.836 159.593 251.581 159.593 252.523C159.593 253.055 159.427 253.635 159.093 254.266C158.765 254.896 158.185 255.682 157.351 256.625L154.179 260.211H160.156V261ZM164.624 254.805H165.593C166.129 254.805 166.598 254.711 166.999 254.523C167.4 254.331 167.705 254.07 167.913 253.742C168.127 253.409 168.233 253.026 168.233 252.594C168.233 251.865 168.028 251.294 167.616 250.883C167.205 250.471 166.614 250.266 165.843 250.266C165.114 250.266 164.515 250.482 164.046 250.914C163.582 251.341 163.351 251.906 163.351 252.609H162.413C162.413 252.021 162.562 251.484 162.858 251C163.155 250.51 163.567 250.133 164.093 249.867C164.619 249.602 165.202 249.469 165.843 249.469C166.874 249.469 167.687 249.75 168.28 250.312C168.874 250.875 169.171 251.646 169.171 252.625C169.171 253.172 168.996 253.677 168.647 254.141C168.304 254.599 167.83 254.943 167.226 255.172C167.934 255.37 168.47 255.711 168.835 256.195C169.2 256.674 169.382 257.247 169.382 257.914C169.382 258.888 169.064 259.672 168.429 260.266C167.793 260.859 166.944 261.156 165.882 261.156C165.205 261.156 164.582 261.021 164.015 260.75C163.452 260.479 163.015 260.102 162.702 259.617C162.395 259.128 162.241 258.56 162.241 257.914H163.179C163.179 258.638 163.431 259.229 163.937 259.688C164.442 260.141 165.09 260.367 165.882 260.367C166.689 260.367 167.317 260.161 167.765 259.75C168.218 259.333 168.444 258.732 168.444 257.945C168.444 257.185 168.2 256.604 167.71 256.203C167.226 255.802 166.509 255.602 165.562 255.602H164.624V254.805ZM177.803 257.336H179.577V258.125H177.803V261H176.866V258.125H171.514V257.594L176.78 249.625H177.803V257.336ZM172.663 257.336H176.866V250.836L176.452 251.555L172.663 257.336Z" fill="#1F3F68"/>
        <path d="M7.62 254.79C9.06 257.62 11.38 259.93 14.21 261.38L16.41 259.18C16.68 258.91 17.08 258.82 17.43 258.94C18.55 259.31 19.76 259.51 21 259.51C21.55 259.51 22 259.96 22 260.51V264C22 264.55 21.55 265 21 265C11.61 265 4 257.39 4 248C4 247.45 4.45 247 5 247H8.5C9.05 247 9.5 247.45 9.5 248C9.5 249.25 9.7 250.45 10.07 251.57C10.18 251.92 10.1 252.31 9.82 252.59L7.62 254.79Z" fill="#1F3F68"/>
    </g>
    <g opacity="0.6">
        <path d="M7.62 212.79C9.06 215.62 11.38 217.93 14.21 219.38L16.41 217.18C16.68 216.91 17.08 216.82 17.43 216.94C18.55 217.31 19.76 217.51 21 217.51C21.55 217.51 22 217.96 22 218.51V222C22 222.55 21.55 223 21 223C11.61 223 4 215.39 4 206C4 205.45 4.45 205 5 205H8.5C9.05 205 9.5 205.45 9.5 206C9.5 207.25 9.7 208.45 10.07 209.57C10.18 209.92 10.1 210.31 9.82 210.59L7.62 212.79Z" fill="#1F3F68"/>
        <path d="M45.9219 213.219H49.3828V214.094H45.9219V217.859H44.9766V214.094H41.5859V213.219H44.9766V209.578H45.9219V213.219ZM58.7494 208.164L53.89 219H52.9134L57.7416 208.422H51.2728V207.625H58.7494V208.164ZM64.3113 214.375H60.5691V213.586H64.3113V214.375ZM73.1778 210.555C73.1778 211.143 73.0059 211.672 72.6622 212.141C72.3184 212.604 71.8653 212.945 71.3028 213.164C71.9591 213.388 72.4851 213.75 72.8809 214.25C73.2768 214.75 73.4747 215.328 73.4747 215.984C73.4747 216.958 73.144 217.732 72.4825 218.305C71.821 218.872 70.946 219.156 69.8575 219.156C68.7585 219.156 67.8783 218.872 67.2169 218.305C66.5606 217.737 66.2325 216.964 66.2325 215.984C66.2325 215.339 66.4226 214.763 66.8028 214.258C67.183 213.753 67.7039 213.388 68.3653 213.164C67.8028 212.945 67.3549 212.604 67.0216 212.141C66.6882 211.672 66.5216 211.143 66.5216 210.555C66.5216 209.612 66.8236 208.862 67.4278 208.305C68.0372 207.747 68.8419 207.469 69.8419 207.469C70.8419 207.469 71.6466 207.75 72.2559 208.312C72.8705 208.875 73.1778 209.622 73.1778 210.555ZM72.5372 215.992C72.5372 215.284 72.2846 214.703 71.7794 214.25C71.2742 213.792 70.6283 213.562 69.8419 213.562C69.0554 213.562 68.4122 213.786 67.9122 214.234C67.4122 214.682 67.1622 215.268 67.1622 215.992C67.1622 216.716 67.4044 217.294 67.8888 217.727C68.3731 218.154 69.0294 218.367 69.8575 218.367C70.6648 218.367 71.3132 218.154 71.8028 217.727C72.2924 217.299 72.5372 216.721 72.5372 215.992ZM72.2403 210.547C72.2403 209.896 72.0138 209.354 71.5606 208.922C71.1127 208.484 70.5398 208.266 69.8419 208.266C69.1335 208.266 68.558 208.477 68.1153 208.898C67.6778 209.315 67.4591 209.865 67.4591 210.547C67.4591 211.214 67.6778 211.75 68.1153 212.156C68.558 212.562 69.1361 212.766 69.8497 212.766C70.5528 212.766 71.1257 212.562 71.5684 212.156C72.0164 211.745 72.2403 211.208 72.2403 210.547ZM80.3413 219H79.4038V208.75L76.31 209.898V209.023L80.185 207.586H80.3413V219ZM92.6297 219H85.5047V218.281L89.4031 213.859C90.049 213.115 90.4969 212.5 90.7469 212.016C90.9969 211.531 91.1219 211.06 91.1219 210.602C91.1219 209.883 90.9109 209.315 90.4891 208.898C90.0672 208.477 89.4865 208.266 88.7469 208.266C87.9813 208.266 87.3615 208.51 86.8875 209C86.4188 209.49 86.1844 210.125 86.1844 210.906H85.2547C85.2547 210.266 85.3979 209.682 85.6844 209.156C85.976 208.63 86.3875 208.219 86.9188 207.922C87.4552 207.62 88.0646 207.469 88.7469 207.469C89.7885 207.469 90.601 207.742 91.1844 208.289C91.7729 208.836 92.0672 209.581 92.0672 210.523C92.0672 211.055 91.9005 211.635 91.5672 212.266C91.2391 212.896 90.6583 213.682 89.825 214.625L86.6531 218.211H92.6297V219ZM98.0744 214.375H94.3322V213.586H98.0744V214.375ZM107.246 208.164L102.386 219H101.41L106.238 208.422H99.7691V207.625H107.246V208.164ZM111.831 212.805H112.8C113.336 212.805 113.805 212.711 114.206 212.523C114.607 212.331 114.912 212.07 115.12 211.742C115.334 211.409 115.44 211.026 115.44 210.594C115.44 209.865 115.235 209.294 114.823 208.883C114.412 208.471 113.821 208.266 113.05 208.266C112.321 208.266 111.722 208.482 111.253 208.914C110.789 209.341 110.558 209.906 110.558 210.609H109.62C109.62 210.021 109.768 209.484 110.065 209C110.362 208.51 110.774 208.133 111.3 207.867C111.826 207.602 112.409 207.469 113.05 207.469C114.081 207.469 114.893 207.75 115.487 208.312C116.081 208.875 116.378 209.646 116.378 210.625C116.378 211.172 116.203 211.677 115.854 212.141C115.511 212.599 115.037 212.943 114.433 213.172C115.141 213.37 115.677 213.711 116.042 214.195C116.406 214.674 116.589 215.247 116.589 215.914C116.589 216.888 116.271 217.672 115.636 218.266C115 218.859 114.151 219.156 113.089 219.156C112.412 219.156 111.789 219.021 111.222 218.75C110.659 218.479 110.222 218.102 109.909 217.617C109.602 217.128 109.448 216.56 109.448 215.914H110.386C110.386 216.638 110.638 217.229 111.143 217.688C111.649 218.141 112.297 218.367 113.089 218.367C113.896 218.367 114.524 218.161 114.972 217.75C115.425 217.333 115.651 216.732 115.651 215.945C115.651 215.185 115.406 214.604 114.917 214.203C114.433 213.802 113.716 213.602 112.768 213.602H111.831V212.805ZM123.619 219H122.682V208.75L119.588 209.898V209.023L123.463 207.586H123.619V219ZM130.861 212.805H131.83C132.366 212.805 132.835 212.711 133.236 212.523C133.637 212.331 133.942 212.07 134.15 211.742C134.364 211.409 134.47 211.026 134.47 210.594C134.47 209.865 134.265 209.294 133.853 208.883C133.442 208.471 132.851 208.266 132.08 208.266C131.351 208.266 130.752 208.482 130.283 208.914C129.819 209.341 129.588 209.906 129.588 210.609H128.65C128.65 210.021 128.798 209.484 129.095 209C129.392 208.51 129.804 208.133 130.33 207.867C130.856 207.602 131.439 207.469 132.08 207.469C133.111 207.469 133.923 207.75 134.517 208.312C135.111 208.875 135.408 209.646 135.408 210.625C135.408 211.172 135.233 211.677 134.884 212.141C134.541 212.599 134.067 212.943 133.463 213.172C134.171 213.37 134.707 213.711 135.072 214.195C135.436 214.674 135.619 215.247 135.619 215.914C135.619 216.888 135.301 217.672 134.666 218.266C134.03 218.859 133.181 219.156 132.119 219.156C131.442 219.156 130.819 219.021 130.252 218.75C129.689 218.479 129.252 218.102 128.939 217.617C128.632 217.128 128.478 216.56 128.478 215.914H129.416C129.416 216.638 129.668 217.229 130.173 217.688C130.679 218.141 131.327 218.367 132.119 218.367C132.926 218.367 133.554 218.161 134.002 217.75C134.455 217.333 134.681 216.732 134.681 215.945C134.681 215.185 134.436 214.604 133.947 214.203C133.463 213.802 132.746 213.602 131.798 213.602H130.861V212.805ZM141.353 214.375H137.61V213.586H141.353V214.375ZM149.258 215.336H151.032V216.125H149.258V219H148.321V216.125H142.969V215.594L148.235 207.625H149.258V215.336ZM144.118 215.336H148.321V208.836L147.907 209.555L144.118 215.336ZM155.109 212.805H156.078C156.614 212.805 157.083 212.711 157.484 212.523C157.885 212.331 158.19 212.07 158.398 211.742C158.612 211.409 158.718 211.026 158.718 210.594C158.718 209.865 158.513 209.294 158.101 208.883C157.69 208.471 157.099 208.266 156.328 208.266C155.599 208.266 155 208.482 154.531 208.914C154.067 209.341 153.836 209.906 153.836 210.609H152.898C152.898 210.021 153.047 209.484 153.343 209C153.64 208.51 154.052 208.133 154.578 207.867C155.104 207.602 155.687 207.469 156.328 207.469C157.359 207.469 158.172 207.75 158.765 208.312C159.359 208.875 159.656 209.646 159.656 210.625C159.656 211.172 159.481 211.677 159.132 212.141C158.789 212.599 158.315 212.943 157.711 213.172C158.419 213.37 158.955 213.711 159.32 214.195C159.685 214.674 159.867 215.247 159.867 215.914C159.867 216.888 159.549 217.672 158.914 218.266C158.278 218.859 157.429 219.156 156.367 219.156C155.69 219.156 155.067 219.021 154.5 218.75C153.937 218.479 153.5 218.102 153.187 217.617C152.88 217.128 152.726 216.56 152.726 215.914H153.664C153.664 216.638 153.916 217.229 154.422 217.688C154.927 218.141 155.575 218.367 156.367 218.367C157.174 218.367 157.802 218.161 158.25 217.75C158.703 217.333 158.929 216.732 158.929 215.945C158.929 215.185 158.685 214.604 158.195 214.203C157.711 213.802 156.994 213.602 156.047 213.602H155.109V212.805ZM169.671 219H162.546V218.281L166.444 213.859C167.09 213.115 167.538 212.5 167.788 212.016C168.038 211.531 168.163 211.06 168.163 210.602C168.163 209.883 167.952 209.315 167.53 208.898C167.108 208.477 166.528 208.266 165.788 208.266C165.022 208.266 164.403 208.51 163.929 209C163.46 209.49 163.226 210.125 163.226 210.906H162.296C162.296 210.266 162.439 209.682 162.726 209.156C163.017 208.63 163.429 208.219 163.96 207.922C164.496 207.62 165.106 207.469 165.788 207.469C166.83 207.469 167.642 207.742 168.226 208.289C168.814 208.836 169.108 209.581 169.108 210.523C169.108 211.055 168.942 211.635 168.608 212.266C168.28 212.896 167.7 213.682 166.866 214.625L163.694 218.211H169.671V219ZM176.413 219H175.475V208.75L172.381 209.898V209.023L176.256 207.586H176.413V219Z" fill="#1F3F68"/>
    </g>
</svg>
